<svg width="68" height="66" viewBox="0 0 68 66" fill="none" xmlns="http://www.w3.org/2000/svg">
<rect x="0.521729" width="67.4783" height="66" rx="12" fill="#D5CDC3" style="fill:#D5CDC3;fill:color(display-p3 0.8353 0.8039 0.7647);fill-opacity:1;"/>
<path d="M34.1234 48.5837C25.5181 48.5837 18.5217 41.5995 18.5217 33.0064C18.5217 24.4012 25.5181 17.417 34.1234 17.417C42.7286 17.417 49.725 24.4012 49.725 32.9942C49.725 41.5873 42.7286 48.5837 34.1234 48.5837ZM47.275 35.1273C46.8241 34.981 43.1552 33.8962 38.9745 34.5544C40.7175 39.3324 41.4244 43.2328 41.5585 44.0373C44.5569 42.0261 46.69 38.8327 47.275 35.1273ZM39.328 45.2683C39.1329 44.0982 38.3529 40.0272 36.488 35.176C36.4636 35.1882 36.427 35.2004 36.4027 35.2004C28.8822 37.821 26.1885 43.0256 25.9447 43.5132C28.1996 45.2683 31.0396 46.3166 34.1234 46.3166C35.9639 46.3288 37.7312 45.9509 39.328 45.2683ZM24.2261 41.9164C24.5308 41.4045 28.1874 35.3589 35.0619 33.1283C35.2325 33.0674 35.4154 33.0186 35.586 32.9699C35.2569 32.2142 34.8913 31.4585 34.5012 30.7149C27.8461 32.7017 21.3861 32.6164 20.801 32.6042C20.801 32.7383 20.7888 32.8724 20.7888 33.0064C20.801 36.4315 22.093 39.5518 24.2261 41.9164ZM21.0814 30.2883C21.6786 30.3005 27.1636 30.3249 33.4042 28.6672C31.1981 24.7424 28.8091 21.4515 28.4678 20.9761C24.7258 22.7313 21.9468 26.1685 21.0814 30.2883ZM31.003 20.0741C31.3687 20.5617 33.7943 23.8527 35.9761 27.8628C40.7175 26.0832 42.7164 23.4017 42.9602 23.0604C40.6078 20.9761 37.5118 19.7085 34.1234 19.7085C33.0507 19.7085 32.0025 19.8426 31.003 20.0741ZM44.4351 24.5962C44.1547 24.974 41.9242 27.8384 36.9999 29.8495C37.3046 30.4834 37.6093 31.1294 37.8897 31.7754C37.9872 32.007 38.0847 32.2385 38.1822 32.4579C42.6189 31.8973 47.0191 32.7992 47.4579 32.8845C47.4213 29.752 46.2999 26.8633 44.4351 24.5962Z" fill="#0F0F0F" style="fill:#0F0F0F;fill:color(display-p3 0.0600 0.0600 0.0600);fill-opacity:1;"/>
</svg>
