<svg width="66" height="66" viewBox="0 0 66 66" fill="none" xmlns="http://www.w3.org/2000/svg">
<rect width="66" height="66" rx="12" fill="#D5CDC3" style="fill:#D5CDC3;fill:color(display-p3 0.8353 0.8039 0.7647);fill-opacity:1;"/>
<path d="M29.9832 32.1627C29.9832 32.1627 32.9473 31.9375 32.9473 28.3908C32.9473 24.8471 30.9369 23.1001 27.8642 23.1001L17.3376 23.0835V42.6677H28.109C28.109 42.6677 33.4946 42.8381 33.4946 36.7925C33.4946 36.7925 33.8902 32.1627 29.9832 32.1627ZM21.2545 26.0211H26.6402C26.6402 26.0211 28.483 26.0515 28.483 28.4408C28.483 30.9172 26.6402 30.9172 26.6402 30.9172H21.2545V26.0211ZM27.1298 39.7301H21.2545V33.8548H27.1298C27.1298 33.8548 30.0674 33.8852 30.0674 36.7925C30.0674 39.6997 27.5528 39.7301 27.1298 39.7301Z" fill="#0F0F0F" style="fill:#0F0F0F;fill:color(display-p3 0.0600 0.0600 0.0600);fill-opacity:1;"/>
<path d="M41.8182 27.98C34.4613 27.98 34.4741 35.3241 34.4741 35.3241C34.4741 35.3241 33.9845 42.6682 41.8182 42.6682C41.8182 42.6682 48.6726 42.6682 48.6726 36.7929H44.7558C44.7558 36.7929 44.7558 39.7305 41.8182 39.7305C41.8182 39.7305 38.8805 39.7305 38.8805 35.8137C38.8805 35.8137 46.7142 35.8137 48.6726 35.8137C48.6726 33.8553 48.6726 27.98 41.8182 27.98ZM38.8805 33.8553C38.8805 33.8553 38.8159 30.9176 41.8182 30.9176C44.8194 30.9176 44.7558 33.8553 44.7558 33.8553H38.8805Z" fill="#0F0F0F" style="fill:#0F0F0F;fill:color(display-p3 0.0600 0.0600 0.0600);fill-opacity:1;"/>
<path d="M45.7353 25.042H37.9016V27.0004H45.7353V25.042Z" fill="#0F0F0F" style="fill:#0F0F0F;fill:color(display-p3 0.0600 0.0600 0.0600);fill-opacity:1;"/>
</svg>
