<svg width="326" height="273" viewBox="0 0 326 273" fill="none" xmlns="http://www.w3.org/2000/svg">
<path d="M446.103 164.21L417.377 109.944C376.009 131.836 342.401 145.145 316.912 149.719C346.615 129.42 373.594 94.4761 398.157 44.578L343.069 17.3935C326.316 51.3613 310.643 73.1499 296.46 87.0248C304.528 49.7682 294.25 -2.75077 250.159 -86L195.893 -57.2738C217.784 -15.9061 231.094 17.7018 235.667 43.1391C215.369 13.4366 180.425 -13.4909 130.578 -38.106L103.393 16.9824C137.361 33.735 159.15 49.4085 173.025 63.5917C135.768 55.5237 83.2492 65.8014 0 109.841L28.7261 164.107C70.0424 142.216 103.599 128.958 129.088 124.333C99.3338 144.888 72.4063 179.781 47.9454 229.422L103.034 256.607C119.684 222.793 135.408 200.953 149.643 186.975C141.575 224.232 151.853 276.751 195.944 360L250.21 331.274C228.319 289.958 215.06 256.401 210.436 230.912C230.991 260.666 265.884 287.594 315.525 312.055L342.709 256.966C308.896 240.316 287.056 224.643 273.078 210.408C280.632 212.053 288.751 212.926 297.693 212.926C332.843 212.926 379.76 199.257 446.154 164.107L446.103 164.21Z" fill="#C0B5A5" style="fill:#C0B5A5;fill:color(display-p3 0.7529 0.7098 0.6471);fill-opacity:1;"/>
</svg>
