<svg width="246" height="386" viewBox="0 0 246 386" fill="none" xmlns="http://www.w3.org/2000/svg">
<path d="M397.633 316.042L320.927 240.282C313.857 233.311 318.327 221.263 328.233 220.59L435.792 213.194C449.515 212.255 450.34 192.38 436.734 190.31L330.159 174.114C320.353 172.622 316.877 160.252 324.494 153.884L407.164 84.68C417.718 75.8311 406.694 59.2728 394.469 65.5962L298.729 115.133C289.916 119.688 279.844 111.734 282.253 102.102L308.45 -2.46408C311.795 -15.8185 293.145 -22.7382 286.97 -10.4335L238.625 85.9154C234.168 94.7876 221.345 94.2474 217.637 85.0465L177.358 -14.9552C172.216 -27.7217 153.061 -22.3605 155.288 -8.76983L172.815 97.6087C174.435 107.404 163.732 114.513 155.325 109.248L63.9772 52.0119C52.3141 44.7064 39.9598 60.3042 49.7657 69.973L126.472 145.734C133.542 152.705 129.072 164.754 119.166 165.426L11.6076 172.821C-2.12156 173.776 -2.94111 193.636 10.6646 195.706L117.239 211.902C127.045 213.394 130.521 225.764 122.905 232.132L40.2347 301.335C29.6876 310.168 40.711 326.726 52.9354 320.403L148.693 270.873C157.505 266.317 167.571 274.288 165.169 283.904L138.971 388.47C135.626 401.825 154.276 408.744 160.451 396.44L208.796 300.09C213.253 291.218 226.082 291.742 229.784 300.959L270.046 400.954C275.188 413.721 294.345 408.36 292.111 394.785L274.584 288.407C272.98 278.618 283.667 271.503 292.073 276.768L383.422 334.004C395.085 341.31 407.439 325.711 397.633 316.042Z" fill="#C0B5A5" style="fill:#C0B5A5;fill:color(display-p3 0.7529 0.7098 0.6471);fill-opacity:1;"/>
</svg>
