<svg width="77" height="76" viewBox="0 0 77 76" fill="none" xmlns="http://www.w3.org/2000/svg">
<rect x="1.0835" y="0.75" width="74.5" height="74.5" rx="37.25" stroke="#262626" style="stroke:#262626;stroke:color(display-p3 0.1500 0.1500 0.1500);stroke-opacity:1;" stroke-width="1.5" stroke-dasharray="16 6"/>
<path d="M61.3335 38L76.3335 38" stroke="#262626" style="stroke:#262626;stroke:color(display-p3 0.1500 0.1500 0.1500);stroke-opacity:1;" stroke-width="2"/>
<path d="M0.333496 38L15.3335 38" stroke="#262626" style="stroke:#262626;stroke:color(display-p3 0.1500 0.1500 0.1500);stroke-opacity:1;" stroke-width="2"/>
<path d="M38.3335 15V1.19209e-07" stroke="#262626" style="stroke:#262626;stroke:color(display-p3 0.1500 0.1500 0.1500);stroke-opacity:1;" stroke-width="2"/>
<path d="M38.3335 76V61" stroke="#262626" style="stroke:#262626;stroke:color(display-p3 0.1500 0.1500 0.1500);stroke-opacity:1;" stroke-width="2"/>
<rect x="10.3335" y="10" width="56" height="56" rx="28" fill="#1A1919" style="fill:#1A1919;fill:color(display-p3 0.1020 0.0980 0.0980);fill-opacity:1;"/>
<path d="M37.4583 32.2319C34.6518 32.654 32.5 35.0757 32.5 38C32.5 41.2217 35.1117 43.8334 38.3333 43.8334C41.555 43.8334 44.1667 41.2217 44.1667 38C44.1667 35.0757 42.0149 32.654 39.2083 32.2319V36.8334C39.2083 37.3166 38.8166 37.7084 38.3333 37.7084C37.8501 37.7084 37.4583 37.3166 37.4583 36.8334V32.2319Z" fill="#C0B5A5" style="fill:#C0B5A5;fill:color(display-p3 0.7529 0.7098 0.6471);fill-opacity:1;"/>
<path d="M39.5003 28.0834C39.5003 28.7277 38.978 29.25 38.3337 29.25C37.6893 29.25 37.167 28.7277 37.167 28.0834C37.167 27.439 37.6893 26.9167 38.3337 26.9167C38.978 26.9167 39.5003 27.439 39.5003 28.0834Z" fill="#C0B5A5" style="fill:#C0B5A5;fill:color(display-p3 0.7529 0.7098 0.6471);fill-opacity:1;"/>
<path d="M48.2502 39.1666C47.6058 39.1666 47.0835 38.6443 47.0835 38C47.0835 37.3556 47.6058 36.8333 48.2502 36.8333C48.8945 36.8333 49.4168 37.3556 49.4168 38C49.4168 38.6443 48.8945 39.1666 48.2502 39.1666Z" fill="#C0B5A5" style="fill:#C0B5A5;fill:color(display-p3 0.7529 0.7098 0.6471);fill-opacity:1;"/>
<path d="M28.4167 39.1666C27.7723 39.1666 27.25 38.6443 27.25 38C27.25 37.3556 27.7723 36.8333 28.4167 36.8333C29.061 36.8333 29.5833 37.3556 29.5833 38C29.5833 38.6443 29.061 39.1666 28.4167 39.1666Z" fill="#C0B5A5" style="fill:#C0B5A5;fill:color(display-p3 0.7529 0.7098 0.6471);fill-opacity:1;"/>
<path d="M32.1464 30.1629C32.602 30.6185 32.602 31.3572 32.1464 31.8128C31.6908 32.2684 30.9521 32.2684 30.4965 31.8128C30.0409 31.3572 30.0409 30.6185 30.4965 30.1629C30.9521 29.7073 31.6908 29.7073 32.1464 30.1629Z" fill="#C0B5A5" style="fill:#C0B5A5;fill:color(display-p3 0.7529 0.7098 0.6471);fill-opacity:1;"/>
<path d="M46.1708 44.1873C46.6264 44.6429 46.6264 45.3816 46.1708 45.8372C45.7152 46.2928 44.9765 46.2928 44.5209 45.8372C44.0653 45.3816 44.0653 44.6429 44.5209 44.1873C44.9765 43.7317 45.7152 43.7317 46.1708 44.1873Z" fill="#C0B5A5" style="fill:#C0B5A5;fill:color(display-p3 0.7529 0.7098 0.6471);fill-opacity:1;"/>
<path d="M46.1708 31.8128C45.7152 32.2684 44.9765 32.2684 44.5209 31.8128C44.0653 31.3572 44.0653 30.6185 44.5209 30.1629C44.9765 29.7073 45.7152 29.7073 46.1708 30.1629C46.6264 30.6185 46.6264 31.3572 46.1708 31.8128Z" fill="#C0B5A5" style="fill:#C0B5A5;fill:color(display-p3 0.7529 0.7098 0.6471);fill-opacity:1;"/>
<path d="M32.1464 45.8371C31.6908 46.2927 30.9521 46.2927 30.4965 45.8371C30.0409 45.3815 30.0409 44.6428 30.4965 44.1872C30.9521 43.7316 31.6908 43.7316 32.1464 44.1872C32.602 44.6428 32.602 45.3815 32.1464 45.8371Z" fill="#C0B5A5" style="fill:#C0B5A5;fill:color(display-p3 0.7529 0.7098 0.6471);fill-opacity:1;"/>
</svg>
