<svg width="76" height="76" viewBox="0 0 76 76" fill="none" xmlns="http://www.w3.org/2000/svg">
<rect x="0.75" y="0.75" width="74.5" height="74.5" rx="37.25" stroke="#262626" style="stroke:#262626;stroke:color(display-p3 0.1500 0.1500 0.1500);stroke-opacity:1;" stroke-width="1.5" stroke-dasharray="16 6"/>
<path d="M61 38L76 38" stroke="#262626" style="stroke:#262626;stroke:color(display-p3 0.1500 0.1500 0.1500);stroke-opacity:1;" stroke-width="2"/>
<path d="M0 38L15 38" stroke="#262626" style="stroke:#262626;stroke:color(display-p3 0.1500 0.1500 0.1500);stroke-opacity:1;" stroke-width="2"/>
<path d="M38 15V1.19209e-07" stroke="#262626" style="stroke:#262626;stroke:color(display-p3 0.1500 0.1500 0.1500);stroke-opacity:1;" stroke-width="2"/>
<path d="M38 76V61" stroke="#262626" style="stroke:#262626;stroke:color(display-p3 0.1500 0.1500 0.1500);stroke-opacity:1;" stroke-width="2"/>
<rect x="10" y="10" width="56" height="56" rx="28" fill="#1A1919" style="fill:#1A1919;fill:color(display-p3 0.1020 0.0980 0.0980);fill-opacity:1;"/>
<path d="M49.6665 33.5227L49.6665 33.6073C49.6665 34.6115 49.6665 35.1136 49.4248 35.5244C49.183 35.9352 48.7441 36.1791 47.8663 36.6668L46.9408 37.181C47.5785 35.0248 47.7913 32.7081 47.87 30.727C47.8734 30.642 47.8772 30.556 47.881 30.4691L47.8837 30.4082C48.6435 30.6721 49.0701 30.8688 49.3362 31.2381C49.6666 31.6964 49.6666 32.3052 49.6665 33.5227Z" fill="#C0B5A5" style="fill:#C0B5A5;fill:color(display-p3 0.7529 0.7098 0.6471);fill-opacity:1;"/>
<path d="M26.3333 33.5227L26.3333 33.6073C26.3333 34.6115 26.3333 35.1136 26.575 35.5244C26.8167 35.9352 27.2557 36.1791 28.1335 36.6668L29.0595 37.1812C28.4217 35.025 28.2089 32.7082 28.1302 30.727C28.1268 30.642 28.123 30.556 28.1192 30.4691L28.1165 30.4081C27.3564 30.672 26.9297 30.8688 26.6635 31.2381C26.3332 31.6964 26.3332 32.3052 26.3333 33.5227Z" fill="#C0B5A5" style="fill:#C0B5A5;fill:color(display-p3 0.7529 0.7098 0.6471);fill-opacity:1;"/>
<path fill-rule="evenodd" clip-rule="evenodd" d="M38.0001 26.3333C40.0809 26.3333 41.7952 26.5166 43.1066 26.7378C44.4351 26.962 45.0993 27.0741 45.6544 27.7576C46.2094 28.4412 46.18 29.18 46.1214 30.6575C45.92 35.7302 44.8253 42.0661 38.8749 42.6266V46.75H40.5435C41.0996 46.75 41.5784 47.1425 41.6875 47.6878L41.9083 48.7916H44.9999C45.4832 48.7916 45.8749 49.1834 45.8749 49.6666C45.8749 50.1499 45.4832 50.5416 44.9999 50.5416H30.9999C30.5167 50.5416 30.1249 50.1499 30.1249 49.6666C30.1249 49.1834 30.5167 48.7916 30.9999 48.7916H34.0916L34.3123 47.6878C34.4214 47.1425 34.9002 46.75 35.4564 46.75H37.1249V42.6266C31.1749 42.0659 30.0802 35.7301 29.8788 30.6575C29.8202 29.18 29.7908 28.4412 30.3458 27.7576C30.9008 27.0741 31.5651 26.962 32.8936 26.7378C34.205 26.5166 35.9193 26.3333 38.0001 26.3333ZM39.111 31.232L38.9963 31.0262C38.553 30.231 38.3313 29.8333 37.9999 29.8333C37.6685 29.8333 37.4469 30.231 37.0035 31.0262L36.8888 31.232C36.7629 31.458 36.6999 31.571 36.6016 31.6455C36.5034 31.7201 36.3811 31.7478 36.1365 31.8031L35.9138 31.8535C35.0529 32.0483 34.6224 32.1457 34.52 32.475C34.4176 32.8043 34.7111 33.1475 35.298 33.8338L35.4498 34.0113C35.6166 34.2064 35.7 34.3039 35.7375 34.4245C35.775 34.5452 35.7624 34.6753 35.7372 34.9355L35.7142 35.1724C35.6255 36.088 35.5811 36.5459 35.8492 36.7494C36.1173 36.9529 36.5204 36.7674 37.3264 36.3962L37.5349 36.3002C37.764 36.1947 37.8785 36.142 37.9999 36.142C38.1213 36.142 38.2358 36.1947 38.4649 36.3002L38.6734 36.3962C39.4795 36.7674 39.8825 36.9529 40.1506 36.7494C40.4187 36.5459 40.3744 36.088 40.2856 35.1724L40.2627 34.9355C40.2375 34.6753 40.2249 34.5452 40.2624 34.4245C40.2999 34.3039 40.3833 34.2064 40.55 34.0113L40.7019 33.8338C41.2888 33.1475 41.5822 32.8043 41.4798 32.475C41.3774 32.1457 40.947 32.0483 40.0861 31.8535L39.8634 31.8031C39.6187 31.7478 39.4964 31.7201 39.3982 31.6455C39.3 31.571 39.237 31.458 39.111 31.232Z" fill="#C0B5A5" style="fill:#C0B5A5;fill:color(display-p3 0.7529 0.7098 0.6471);fill-opacity:1;"/>
</svg>
