<svg width="77" height="76" viewBox="0 0 77 76" fill="none" xmlns="http://www.w3.org/2000/svg">
<rect x="1.0835" y="0.75" width="74.5" height="74.5" rx="37.25" stroke="#262626" style="stroke:#262626;stroke:color(display-p3 0.1500 0.1500 0.1500);stroke-opacity:1;" stroke-width="1.5" stroke-dasharray="16 6"/>
<path d="M61.3335 38L76.3335 38" stroke="#262626" style="stroke:#262626;stroke:color(display-p3 0.1500 0.1500 0.1500);stroke-opacity:1;" stroke-width="2"/>
<path d="M0.333496 38L15.3335 38" stroke="#262626" style="stroke:#262626;stroke:color(display-p3 0.1500 0.1500 0.1500);stroke-opacity:1;" stroke-width="2"/>
<path d="M38.3335 15V1.19209e-07" stroke="#262626" style="stroke:#262626;stroke:color(display-p3 0.1500 0.1500 0.1500);stroke-opacity:1;" stroke-width="2"/>
<path d="M38.3335 76V61" stroke="#262626" style="stroke:#262626;stroke:color(display-p3 0.1500 0.1500 0.1500);stroke-opacity:1;" stroke-width="2"/>
<rect x="10.3335" y="10" width="56" height="56" rx="28" fill="#1A1919" style="fill:#1A1919;fill:color(display-p3 0.1020 0.0980 0.0980);fill-opacity:1;"/>
<path fill-rule="evenodd" clip-rule="evenodd" d="M48.8335 37.8847V31.5006C48.8335 28.8534 48.8335 27.5297 48.0084 26.8054C47.1832 26.0812 45.922 26.299 43.3996 26.7346L42.1695 26.947C40.2559 27.2775 39.2991 27.4427 38.3335 27.4427C37.3679 27.4427 36.4111 27.2775 34.4975 26.947L33.2674 26.7346C30.745 26.299 29.4837 26.0812 28.6586 26.8054C27.8335 27.5297 27.8335 28.8534 27.8335 31.5006V37.8847C27.8335 44.5217 32.779 47.7426 35.8818 49.1102C36.7235 49.4812 37.1444 49.6667 38.3335 49.6667C39.5226 49.6667 39.9435 49.4812 40.7852 49.1102C43.888 47.7426 48.8335 44.5217 48.8335 37.8847ZM32.6995 34.6634C32.8436 34.3647 33.3831 33.956 34.2502 33.956C35.1172 33.956 35.6567 34.3647 35.8008 34.6634C36.0168 35.1114 36.5423 35.293 36.9746 35.0692C37.4069 34.8454 37.5822 34.3008 37.3662 33.8529C36.831 32.7431 35.5376 32.1427 34.2502 32.1427C32.9628 32.1427 31.6693 32.7431 31.1341 33.8529C30.9181 34.3008 31.0934 34.8454 31.5257 35.0692C31.958 35.293 32.4835 35.1114 32.6995 34.6634ZM42.4168 33.956C41.5497 33.956 41.0103 34.3647 40.8662 34.6634C40.6502 35.1114 40.1247 35.293 39.6924 35.0692C39.2601 34.8454 39.0848 34.3008 39.3008 33.8529C39.836 32.7431 41.1294 32.1427 42.4168 32.1427C43.7042 32.1427 44.9976 32.7431 45.5329 33.8529C45.7489 34.3008 45.5736 34.8454 45.1413 35.0692C44.709 35.293 44.1835 35.1114 43.9674 34.6634C43.8234 34.3647 43.2839 33.956 42.4168 33.956ZM33.6534 40.9656C33.3035 40.6202 33.2833 40.0398 33.6165 39.6772C33.9471 39.3176 34.5114 39.3155 34.8617 39.652C34.8843 39.6703 34.9393 39.714 34.9811 39.7436C35.0986 39.8271 35.2935 39.95 35.5721 40.0769C36.1263 40.3293 37.0273 40.6047 38.3335 40.6047C39.6397 40.6047 40.5407 40.3293 41.0949 40.0769C41.3735 39.95 41.5684 39.8271 41.6859 39.7436C41.7447 39.7018 41.7843 39.6698 41.8053 39.652C41.8142 39.6445 41.8198 39.6395 41.8221 39.6374L41.823 39.6366C42.1734 39.3009 42.7202 39.3179 43.0504 39.6772C43.3837 40.0398 43.3702 40.6137 43.0203 40.959L43.0188 40.9605L43.0172 40.962L43.0135 40.9656L43.0049 40.9739L42.9818 40.9954C42.9638 41.0119 42.9405 41.0326 42.9119 41.0567C42.8548 41.1051 42.7763 41.1675 42.6756 41.2391C42.4741 41.3822 42.1841 41.5615 41.7991 41.7369C41.0263 42.0889 39.8857 42.4179 38.3335 42.4179C36.7813 42.4179 35.6407 42.0889 34.8679 41.7369C34.4829 41.5615 34.1929 41.3822 33.9914 41.2391C33.8907 41.1675 33.8122 41.1051 33.7551 41.0567C33.728 41.0339 33.669 40.9802 33.6553 40.9673L33.6534 40.9656Z" fill="#C0B5A5" style="fill:#C0B5A5;fill:color(display-p3 0.7529 0.7098 0.6471);fill-opacity:1;"/>
</svg>
