<svg width="77" height="76" viewBox="0 0 77 76" fill="none" xmlns="http://www.w3.org/2000/svg">
<rect x="1.41675" y="0.75" width="74.5" height="74.5" rx="37.25" stroke="#262626" style="stroke:#262626;stroke:color(display-p3 0.1500 0.1500 0.1500);stroke-opacity:1;" stroke-width="1.5" stroke-dasharray="16 6"/>
<path d="M61.6667 38L76.6667 38" stroke="#262626" style="stroke:#262626;stroke:color(display-p3 0.1500 0.1500 0.1500);stroke-opacity:1;" stroke-width="2"/>
<path d="M0.666748 38L15.6667 38" stroke="#262626" style="stroke:#262626;stroke:color(display-p3 0.1500 0.1500 0.1500);stroke-opacity:1;" stroke-width="2"/>
<path d="M38.6667 15V1.19209e-07" stroke="#262626" style="stroke:#262626;stroke:color(display-p3 0.1500 0.1500 0.1500);stroke-opacity:1;" stroke-width="2"/>
<path d="M38.6667 76V61" stroke="#262626" style="stroke:#262626;stroke:color(display-p3 0.1500 0.1500 0.1500);stroke-opacity:1;" stroke-width="2"/>
<rect x="10.6667" y="10" width="56" height="56" rx="28" fill="#1A1919" style="fill:#1A1919;fill:color(display-p3 0.1020 0.0980 0.0980);fill-opacity:1;"/>
<path d="M29.152 28.4853C27.8383 29.799 27.8383 31.9289 29.152 33.2426L31.0044 35.095C31.0183 35.0789 31.0329 35.0632 31.0482 35.0479L35.7148 30.3813C35.7301 30.366 35.7457 30.3515 35.7617 30.3376L33.9094 28.4853C32.5957 27.1716 30.4657 27.1716 29.152 28.4853Z" fill="#C0B5A5" style="fill:#C0B5A5;fill:color(display-p3 0.7529 0.7098 0.6471);fill-opacity:1;"/>
<path d="M36.9959 31.5718C36.982 31.5878 36.9675 31.6035 36.9523 31.6187L32.2856 36.2854C32.2703 36.3006 32.2546 36.3152 32.2385 36.3291L43.4241 47.5147C44.7378 48.8284 46.8678 48.8284 48.1815 47.5147C49.4952 46.201 49.4952 44.071 48.1815 42.7573L36.9959 31.5718Z" fill="#C0B5A5" style="fill:#C0B5A5;fill:color(display-p3 0.7529 0.7098 0.6471);fill-opacity:1;"/>
<path d="M43.4501 26.6917C43.6379 26.2139 44.3117 26.2139 44.4994 26.6917L45.0016 27.9695C45.0589 28.1154 45.1739 28.2309 45.3193 28.2884L46.5924 28.7924C47.0685 28.9809 47.0685 29.6572 46.5924 29.8456L45.3193 30.3496C45.1739 30.4071 45.0589 30.5226 45.0016 30.6685L44.4994 31.9463C44.3117 32.4242 43.6379 32.4242 43.4501 31.9463L42.948 30.6685C42.8907 30.5226 42.7756 30.4071 42.6303 30.3496L41.3571 29.8456C40.8811 29.6572 40.8811 28.9809 41.3571 28.7924L42.6303 28.2884C42.7756 28.2309 42.8907 28.1154 42.948 27.9695L43.4501 26.6917Z" fill="#C0B5A5" style="fill:#C0B5A5;fill:color(display-p3 0.7529 0.7098 0.6471);fill-opacity:1;"/>
<path d="M47.9618 34.651C48.1496 34.1732 48.8233 34.1732 49.0111 34.651L49.1942 35.1169C49.2515 35.2628 49.3666 35.3783 49.5119 35.4358L49.9761 35.6196C50.4522 35.808 50.4522 36.4843 49.9761 36.6728L49.5119 36.8565C49.3666 36.9141 49.2515 37.0295 49.1942 37.1754L49.0111 37.6413C48.8233 38.1192 48.1496 38.1192 47.9618 37.6413L47.7787 37.1754C47.7214 37.0295 47.6063 36.9141 47.461 36.8565L46.9968 36.6728C46.5207 36.4843 46.5207 35.808 46.9968 35.6196L47.461 35.4358C47.6063 35.3783 47.7214 35.2628 47.7787 35.1169L47.9618 34.651Z" fill="#C0B5A5" style="fill:#C0B5A5;fill:color(display-p3 0.7529 0.7098 0.6471);fill-opacity:1;"/>
<path d="M30.6555 41.8584C30.8432 41.3805 31.517 41.3805 31.7048 41.8584L31.8879 42.3243C31.9452 42.4702 32.0603 42.5856 32.2056 42.6432L32.6698 42.8269C33.1459 43.0154 33.1459 43.6917 32.6698 43.8801L32.2056 44.0639C32.0603 44.1214 31.9452 44.2369 31.8879 44.3828L31.7048 44.8487C31.517 45.3265 30.8432 45.3265 30.6555 44.8487L30.4724 44.3828C30.4151 44.2369 30.3 44.1214 30.1547 44.0639L29.6905 43.8801C29.2144 43.6917 29.2144 43.0154 29.6905 42.8269L30.1547 42.6432C30.3 42.5856 30.4151 42.4702 30.4724 42.3243L30.6555 41.8584Z" fill="#C0B5A5" style="fill:#C0B5A5;fill:color(display-p3 0.7529 0.7098 0.6471);fill-opacity:1;"/>
</svg>
