<svg width="77" height="76" viewBox="0 0 77 76" fill="none" xmlns="http://www.w3.org/2000/svg">
<rect x="1.41675" y="0.75" width="74.5" height="74.5" rx="37.25" stroke="#262626" style="stroke:#262626;stroke:color(display-p3 0.1500 0.1500 0.1500);stroke-opacity:1;" stroke-width="1.5" stroke-dasharray="16 6"/>
<path d="M61.6667 38L76.6667 38" stroke="#262626" style="stroke:#262626;stroke:color(display-p3 0.1500 0.1500 0.1500);stroke-opacity:1;" stroke-width="2"/>
<path d="M0.666748 38L15.6667 38" stroke="#262626" style="stroke:#262626;stroke:color(display-p3 0.1500 0.1500 0.1500);stroke-opacity:1;" stroke-width="2"/>
<path d="M38.6667 15V1.19209e-07" stroke="#262626" style="stroke:#262626;stroke:color(display-p3 0.1500 0.1500 0.1500);stroke-opacity:1;" stroke-width="2"/>
<path d="M38.6667 76V61" stroke="#262626" style="stroke:#262626;stroke:color(display-p3 0.1500 0.1500 0.1500);stroke-opacity:1;" stroke-width="2"/>
<rect x="10.6667" y="10" width="56" height="56" rx="28" fill="#1A1919" style="fill:#1A1919;fill:color(display-p3 0.1020 0.0980 0.0980);fill-opacity:1;"/>
<path d="M45.6667 33.3333C45.6667 37.1993 42.5327 40.3333 38.6667 40.3333C34.8008 40.3333 31.6667 37.1993 31.6667 33.3333C31.6667 29.4674 34.8008 26.3333 38.6667 26.3333C42.5327 26.3333 45.6667 29.4674 45.6667 33.3333Z" fill="#C0B5A5" style="fill:#C0B5A5;fill:color(display-p3 0.7529 0.7098 0.6471);fill-opacity:1;"/>
<path d="M30.5391 36.5807C28.4252 37.7854 27 40.0596 27 42.6667C27 46.5327 30.134 49.6667 34 49.6667C37.866 49.6667 41 46.5327 41 42.6667C41 42.3676 40.9812 42.073 40.9449 41.7838C40.2185 41.9792 39.4547 42.0833 38.6667 42.0833C34.9816 42.0833 31.8286 39.8053 30.5391 36.5807Z" fill="#C0B5A5" style="fill:#C0B5A5;fill:color(display-p3 0.7529 0.7098 0.6471);fill-opacity:1;"/>
<path d="M42.6177 41.1426C42.7046 41.6375 42.75 42.1468 42.75 42.6667C42.75 45.1057 41.752 47.3117 40.1421 48.8986C41.099 49.3896 42.1838 49.6667 43.3333 49.6667C47.1993 49.6667 50.3333 46.5327 50.3333 42.6667C50.3333 40.0596 48.9081 37.7854 46.7943 36.5807C46.0022 38.5613 44.5072 40.1847 42.6177 41.1426Z" fill="#C0B5A5" style="fill:#C0B5A5;fill:color(display-p3 0.7529 0.7098 0.6471);fill-opacity:1;"/>
</svg>
