<svg width="76" height="76" viewBox="0 0 76 76" fill="none" xmlns="http://www.w3.org/2000/svg">
<rect x="0.75" y="0.75" width="74.5" height="74.5" rx="37.25" stroke="#262626" style="stroke:#262626;stroke:color(display-p3 0.1500 0.1500 0.1500);stroke-opacity:1;" stroke-width="1.5" stroke-dasharray="16 6"/>
<path d="M61 38L76 38" stroke="#262626" style="stroke:#262626;stroke:color(display-p3 0.1500 0.1500 0.1500);stroke-opacity:1;" stroke-width="2"/>
<path d="M0 38L15 38" stroke="#262626" style="stroke:#262626;stroke:color(display-p3 0.1500 0.1500 0.1500);stroke-opacity:1;" stroke-width="2"/>
<path d="M38 15V1.19209e-07" stroke="#262626" style="stroke:#262626;stroke:color(display-p3 0.1500 0.1500 0.1500);stroke-opacity:1;" stroke-width="2"/>
<path d="M38 76V61" stroke="#262626" style="stroke:#262626;stroke:color(display-p3 0.1500 0.1500 0.1500);stroke-opacity:1;" stroke-width="2"/>
<rect x="10" y="10" width="56" height="56" rx="28" fill="#1A1919" style="fill:#1A1919;fill:color(display-p3 0.1020 0.0980 0.0980);fill-opacity:1;"/>
<path d="M34.6786 30.3098C36.1564 27.6588 36.8952 26.3333 37.9999 26.3333C39.1046 26.3333 39.8435 27.6588 41.3212 30.3098L41.7035 30.9956C42.1235 31.7489 42.3334 32.1256 42.6608 32.3741C42.9882 32.6226 43.3959 32.7149 44.2114 32.8994L44.9538 33.0674C47.8234 33.7167 49.2582 34.0413 49.5996 35.139C49.941 36.2368 48.9628 37.3806 47.0065 39.6683L46.5003 40.2601C45.9444 40.9102 45.6665 41.2352 45.5414 41.6373C45.4164 42.0395 45.4584 42.4731 45.5424 43.3405L45.619 44.1301C45.9147 47.1824 46.0626 48.7085 45.1689 49.3869C44.2752 50.0654 42.9318 49.4468 40.245 48.2097L39.5499 47.8897C38.7863 47.5381 38.4046 47.3623 37.9999 47.3623C37.5953 47.3623 37.2135 47.5381 36.45 47.8897L35.7549 48.2097C33.068 49.4468 31.7246 50.0654 30.8309 49.3869C29.9372 48.7085 30.0851 47.1824 30.3809 44.1301L30.4574 43.3405C30.5414 42.4731 30.5835 42.0395 30.4584 41.6373C30.3334 41.2352 30.0554 40.9102 29.4995 40.2601L28.9934 39.6683C27.037 37.3806 26.0589 36.2368 26.4002 35.139C26.7416 34.0413 28.1764 33.7167 31.046 33.0674L31.7885 32.8994C32.6039 32.7149 33.0116 32.6226 33.339 32.3741C33.6664 32.1256 33.8764 31.7489 34.2963 30.9956L34.6786 30.3098Z" fill="#C0B5A5" style="fill:#C0B5A5;fill:color(display-p3 0.7529 0.7098 0.6471);fill-opacity:1;"/>
</svg>
