<svg width="67" height="66" viewBox="0 0 67 66" fill="none" xmlns="http://www.w3.org/2000/svg">
<rect x="0.521729" width="66" height="66" rx="12" fill="#D5CDC3" style="fill:#D5CDC3;fill:color(display-p3 0.8353 0.8039 0.7647);fill-opacity:1;"/>
<path d="M28.7983 33.0001C28.7983 30.3922 30.9131 28.2775 33.5225 28.2775C36.132 28.2775 38.248 30.3922 38.248 33.0001C38.248 35.608 36.132 37.7227 33.5225 37.7227C30.9131 37.7227 28.7983 35.608 28.7983 33.0001ZM26.2438 33.0001C26.2438 37.0178 29.5025 40.2745 33.5225 40.2745C37.5426 40.2745 40.8013 37.0178 40.8013 33.0001C40.8013 28.9825 37.5426 25.7257 33.5225 25.7257C29.5025 25.7257 26.2438 28.9825 26.2438 33.0001ZM39.3884 25.4373C39.3883 25.7735 39.4879 26.1022 39.6747 26.3819C39.8615 26.6615 40.1271 26.8795 40.4379 27.0083C40.7486 27.1371 41.0906 27.1709 41.4206 27.1054C41.7506 27.04 42.0538 26.8782 42.2918 26.6405C42.5298 26.4029 42.6919 26.1 42.7576 25.7703C42.8234 25.4406 42.7899 25.0987 42.6612 24.788C42.5326 24.4774 42.3147 24.2118 42.035 24.0249C41.7554 23.838 41.4266 23.7381 41.0901 23.738H41.0895C40.6385 23.7382 40.2061 23.9173 39.8871 24.2359C39.5682 24.5545 39.3888 24.9866 39.3884 25.4373ZM27.7958 44.5314C26.4138 44.4685 25.6626 44.2385 25.1634 44.0441C24.5016 43.7866 24.0294 43.4799 23.5329 42.9844C23.0365 42.4889 22.7291 42.0175 22.4726 41.3561C22.278 40.8574 22.0478 40.1064 21.985 38.7253C21.9163 37.232 21.9026 36.7834 21.9026 33.0002C21.9026 29.2171 21.9174 28.7697 21.985 27.2752C22.0479 25.894 22.2798 25.1446 22.4726 24.6444C22.7303 23.983 23.0371 23.5111 23.5329 23.0149C24.0287 22.5187 24.5005 22.2116 25.1634 21.9553C25.6624 21.7608 26.4138 21.5307 27.7958 21.4679C29.29 21.3992 29.7388 21.3855 33.5225 21.3855C37.3063 21.3855 37.7556 21.4004 39.251 21.4679C40.633 21.5308 41.3829 21.7626 41.8834 21.9553C42.5452 22.2116 43.0174 22.5194 43.5139 23.0149C44.0103 23.5104 44.3165 23.983 44.5742 24.6444C44.7687 25.1431 44.999 25.894 45.0618 27.2752C45.1305 28.7697 45.1442 29.2171 45.1442 33.0002C45.1442 36.7834 45.1305 37.2307 45.0618 38.7253C44.9988 40.1064 44.7675 40.8572 44.5742 41.3561C44.3165 42.0175 44.0096 42.4894 43.5139 42.9844C43.0181 43.4795 42.5452 43.7866 41.8834 44.0441C41.3844 44.2386 40.633 44.4686 39.251 44.5314C37.7568 44.6001 37.308 44.6138 33.5225 44.6138C29.7371 44.6138 29.2895 44.6001 27.7958 44.5314ZM27.6784 18.9193C26.1694 18.988 25.1382 19.2271 24.2377 19.5773C23.3051 19.9389 22.5156 20.4241 21.7267 21.2113C20.9377 21.9985 20.4535 22.7888 20.0917 23.7209C19.7413 24.6214 19.502 25.6514 19.4333 27.1595C19.3634 28.67 19.3474 29.1529 19.3474 33.0001C19.3474 36.8473 19.3634 37.3302 19.4333 38.8407C19.502 40.349 19.7413 41.3788 20.0917 42.2794C20.4535 43.2109 20.9379 44.002 21.7267 44.7889C22.5155 45.5758 23.3051 46.0603 24.2377 46.4229C25.1399 46.7731 26.1694 47.0123 27.6784 47.081C29.1906 47.1496 29.673 47.1668 33.5225 47.1668C37.3721 47.1668 37.8553 47.1508 39.3667 47.081C40.8758 47.0123 41.9063 46.7731 42.8074 46.4229C43.7394 46.0603 44.5295 45.5761 45.3184 44.7889C46.1073 44.0017 46.5905 43.2109 46.9534 42.2794C47.3038 41.3788 47.5442 40.3489 47.6118 38.8407C47.6805 37.3291 47.6965 36.8473 47.6965 33.0001C47.6965 29.1529 47.6805 28.67 47.6118 27.1595C47.5431 25.6513 47.3038 24.6208 46.9534 23.7209C46.5905 22.7894 46.1061 21.9998 45.3184 21.2113C44.5307 20.4229 43.7394 19.9389 42.8085 19.5773C41.9063 19.2271 40.8757 18.9868 39.3678 18.9193C37.8564 18.8506 37.3732 18.8335 33.5237 18.8335C29.6742 18.8335 29.1906 18.8495 27.6784 18.9193Z" fill="#0F0F0F" style="fill:#0F0F0F;fill:color(display-p3 0.0600 0.0600 0.0600);fill-opacity:1;"/>
<path d="M28.7983 33.0001C28.7983 30.3922 30.9131 28.2775 33.5225 28.2775C36.132 28.2775 38.248 30.3922 38.248 33.0001C38.248 35.608 36.132 37.7227 33.5225 37.7227C30.9131 37.7227 28.7983 35.608 28.7983 33.0001ZM26.2438 33.0001C26.2438 37.0178 29.5025 40.2745 33.5225 40.2745C37.5426 40.2745 40.8013 37.0178 40.8013 33.0001C40.8013 28.9825 37.5426 25.7257 33.5225 25.7257C29.5025 25.7257 26.2438 28.9825 26.2438 33.0001ZM39.3884 25.4373C39.3883 25.7735 39.4879 26.1022 39.6747 26.3819C39.8615 26.6615 40.1271 26.8795 40.4379 27.0083C40.7486 27.1371 41.0906 27.1709 41.4206 27.1054C41.7506 27.04 42.0538 26.8782 42.2918 26.6405C42.5298 26.4029 42.6919 26.1 42.7576 25.7703C42.8234 25.4406 42.7899 25.0987 42.6612 24.788C42.5326 24.4774 42.3147 24.2118 42.035 24.0249C41.7554 23.838 41.4266 23.7381 41.0901 23.738H41.0895C40.6385 23.7382 40.2061 23.9173 39.8871 24.2359C39.5682 24.5545 39.3888 24.9866 39.3884 25.4373ZM27.7958 44.5314C26.4138 44.4685 25.6626 44.2385 25.1634 44.0441C24.5016 43.7866 24.0294 43.4799 23.5329 42.9844C23.0365 42.4889 22.7291 42.0175 22.4726 41.3561C22.278 40.8574 22.0478 40.1064 21.985 38.7253C21.9163 37.232 21.9026 36.7834 21.9026 33.0002C21.9026 29.2171 21.9174 28.7697 21.985 27.2752C22.0479 25.894 22.2798 25.1446 22.4726 24.6444C22.7303 23.983 23.0371 23.5111 23.5329 23.0149C24.0287 22.5187 24.5005 22.2116 25.1634 21.9553C25.6624 21.7608 26.4138 21.5307 27.7958 21.4679C29.29 21.3992 29.7388 21.3855 33.5225 21.3855C37.3063 21.3855 37.7556 21.4004 39.251 21.4679C40.633 21.5308 41.3829 21.7626 41.8834 21.9553C42.5452 22.2116 43.0174 22.5194 43.5139 23.0149C44.0103 23.5104 44.3165 23.983 44.5742 24.6444C44.7687 25.1431 44.999 25.894 45.0618 27.2752C45.1305 28.7697 45.1442 29.2171 45.1442 33.0002C45.1442 36.7834 45.1305 37.2307 45.0618 38.7253C44.9988 40.1064 44.7675 40.8572 44.5742 41.3561C44.3165 42.0175 44.0096 42.4894 43.5139 42.9844C43.0181 43.4795 42.5452 43.7866 41.8834 44.0441C41.3844 44.2386 40.633 44.4686 39.251 44.5314C37.7568 44.6001 37.308 44.6138 33.5225 44.6138C29.7371 44.6138 29.2895 44.6001 27.7958 44.5314ZM27.6784 18.9193C26.1694 18.988 25.1382 19.2271 24.2377 19.5773C23.3051 19.9389 22.5156 20.4241 21.7267 21.2113C20.9377 21.9985 20.4535 22.7888 20.0917 23.7209C19.7413 24.6214 19.502 25.6514 19.4333 27.1595C19.3634 28.67 19.3474 29.1529 19.3474 33.0001C19.3474 36.8473 19.3634 37.3302 19.4333 38.8407C19.502 40.349 19.7413 41.3788 20.0917 42.2794C20.4535 43.2109 20.9379 44.002 21.7267 44.7889C22.5155 45.5758 23.3051 46.0603 24.2377 46.4229C25.1399 46.7731 26.1694 47.0123 27.6784 47.081C29.1906 47.1496 29.673 47.1668 33.5225 47.1668C37.3721 47.1668 37.8553 47.1508 39.3667 47.081C40.8758 47.0123 41.9063 46.7731 42.8074 46.4229C43.7394 46.0603 44.5295 45.5761 45.3184 44.7889C46.1073 44.0017 46.5905 43.2109 46.9534 42.2794C47.3038 41.3788 47.5442 40.3489 47.6118 38.8407C47.6805 37.3291 47.6965 36.8473 47.6965 33.0001C47.6965 29.1529 47.6805 28.67 47.6118 27.1595C47.5431 25.6513 47.3038 24.6208 46.9534 23.7209C46.5905 22.7894 46.1061 21.9998 45.3184 21.2113C44.5307 20.4229 43.7394 19.9389 42.8085 19.5773C41.9063 19.2271 40.8757 18.9868 39.3678 18.9193C37.8564 18.8506 37.3732 18.8335 33.5237 18.8335C29.6742 18.8335 29.1906 18.8495 27.6784 18.9193Z" fill="#0F0F0F" style="fill:#0F0F0F;fill:color(display-p3 0.0600 0.0600 0.0600);fill-opacity:1;"/>
</svg>
