<svg width="163" height="135" viewBox="0 0 163 135" fill="none" xmlns="http://www.w3.org/2000/svg">
<path d="M29.4235 -18.7919C29.4509 -18.1712 29.4781 -17.557 29.5022 -16.9502C30.064 -2.79818 31.584 13.7501 36.1401 29.1519L29.5255 25.477C23.2553 21.9935 20.1202 20.2518 18.3936 17.3175C16.6671 14.3832 16.667 10.7968 16.6668 3.62391L16.6668 3.01953C16.6665 -5.6772 16.6664 -10.0256 19.0259 -13.2993C20.9272 -15.9373 23.9751 -17.3425 29.4043 -19.2278M29.4235 -18.7919C29.4171 -18.9369 29.4107 -19.0821 29.4043 -19.2278M29.4235 -18.7919L29.4043 -19.2278M170.579 -18.7919C170.552 -18.1712 170.525 -17.557 170.501 -16.9502C169.939 -2.79879 168.419 13.7487 163.863 29.1499L170.474 25.477C176.744 21.9935 179.879 20.2518 181.606 17.3175C183.333 14.3832 183.333 10.7968 183.333 3.62391L183.333 3.01953C183.333 -5.67723 183.333 -10.0256 180.974 -13.2993C179.073 -15.9368 176.026 -17.342 170.598 -19.2267M170.579 -18.7919C170.586 -18.9365 170.592 -19.0815 170.598 -19.2267M170.579 -18.7919L170.598 -19.2267M41.9923 -17.4461C41.5733 -28.0002 41.3638 -33.2772 45.3281 -38.1597C49.2924 -43.0422 54.0371 -43.8427 63.5266 -45.4438C72.8938 -47.0242 85.1385 -48.3333 100.001 -48.3333C114.864 -48.3333 127.109 -47.0242 136.476 -45.4438C145.966 -43.8427 150.71 -43.0422 154.675 -38.1597C158.639 -33.2772 158.429 -28.0002 158.01 -17.4461C156.572 18.7872 148.753 64.044 106.25 68.0475V97.5H118.168C122.141 97.5 125.561 100.304 126.34 104.199L127.917 112.083H150C153.452 112.083 156.25 114.882 156.25 118.333C156.25 121.785 153.452 124.583 150 124.583H50.0001C46.5483 124.583 43.7501 121.785 43.7501 118.333C43.7501 114.882 46.5483 112.083 50.0001 112.083H72.0834L73.6603 104.199C74.4393 100.304 77.8594 97.5 81.8318 97.5H93.7501V68.0472C51.2497 64.0421 43.4308 18.7865 41.9923 -17.4461ZM107.117 -14.8124L107.936 -13.3427C108.836 -11.7285 109.286 -10.9213 109.988 -10.3888C110.689 -9.85624 111.563 -9.65856 113.31 -9.26319L114.901 -8.90324C121.05 -7.51192 124.125 -6.81626 124.857 -4.46398C125.588 -2.1117 123.492 0.339369 119.3 5.2415L118.215 6.50974C117.024 7.90278 116.428 8.5993 116.16 9.46098C115.892 10.3227 115.983 11.252 116.163 13.1106L116.327 14.8027C116.96 21.3432 117.277 24.6134 115.362 26.0672C113.447 27.521 110.568 26.1955 104.811 23.5446L103.321 22.8588C101.685 22.1055 100.867 21.7288 100 21.7288C99.1329 21.7288 98.3149 22.1055 96.6788 22.8588L95.1893 23.5446C89.4318 26.1956 86.553 27.521 84.638 26.0672C82.7229 24.6134 83.0398 21.3432 83.6736 14.8027L83.8375 13.1106C84.0176 11.252 84.1077 10.3227 83.8397 9.46098C83.5718 8.5993 82.9761 7.90278 81.7849 6.50975L80.7003 5.24151C76.5082 0.339371 74.4121 -2.1117 75.1436 -4.46398C75.8751 -6.81626 78.9497 -7.51192 85.0989 -8.90324L86.6898 -9.26319C88.4372 -9.65856 89.3109 -9.85624 90.0124 -10.3888C90.714 -10.9213 91.1639 -11.7285 92.0637 -13.3427L92.883 -14.8124C96.0496 -20.493 97.6329 -23.3333 100 -23.3333C102.367 -23.3333 103.951 -20.493 107.117 -14.8124Z" stroke="#262626" style="stroke:#262626;stroke:color(display-p3 0.1500 0.1500 0.1500);stroke-opacity:1;" stroke-width="1.5" stroke-linecap="round" stroke-dasharray="16 6"/>
</svg>
