<svg width="790" height="147" viewBox="0 0 790 147" fill="none" xmlns="http://www.w3.org/2000/svg">
<path d="M669.238 114.714V39.159H689.747V114.714H669.238ZM718.554 114.714V70.1319C718.554 65.7519 717.145 62.3626 714.327 59.964C711.613 57.4612 708.221 56.2097 704.15 56.2097C701.437 56.2097 698.984 56.7833 696.792 57.9304C694.601 58.9733 692.878 60.5376 691.626 62.6233C690.373 64.709 689.747 67.2119 689.747 70.1319L681.763 66.2212C681.763 60.3812 683.015 55.3233 685.52 51.0476C688.13 46.7719 691.626 43.4869 696.009 41.1926C700.393 38.794 705.351 37.5947 710.882 37.5947C716.101 37.5947 720.85 38.794 725.129 41.1926C729.408 43.4869 732.8 46.7719 735.305 51.0476C737.81 55.219 739.062 60.2769 739.062 66.2212V114.714H718.554ZM767.869 114.714V70.1319C767.869 65.7519 766.46 62.3626 763.642 59.964C760.928 57.4612 757.536 56.2097 753.466 56.2097C750.856 56.2097 748.404 56.7833 746.108 57.9304C743.916 58.9733 742.194 60.5376 740.941 62.6233C739.689 64.709 739.062 67.2119 739.062 70.1319L727.321 67.3162C727.738 61.2676 729.356 56.0533 732.174 51.6733C734.992 47.189 738.697 43.7476 743.29 41.349C747.882 38.8462 752.996 37.5947 758.632 37.5947C764.268 37.5947 769.33 38.794 773.818 41.1926C778.306 43.4869 781.855 46.824 784.464 51.204C787.073 55.584 788.378 60.7983 788.378 66.8469V114.714H767.869Z" fill="white" style="fill:white;fill-opacity:1;"/>
<path d="M615.644 116.279C608.024 116.279 601.136 114.558 594.978 111.117C588.925 107.571 584.071 102.826 580.418 96.8818C576.87 90.8333 575.095 84.1068 575.095 76.7025C575.095 69.2982 576.87 62.6761 580.418 56.8361C583.967 50.8918 588.82 46.199 594.978 42.7575C601.136 39.2118 607.972 37.439 615.487 37.439C623.21 37.439 630.099 39.2118 636.152 42.7575C642.31 46.199 647.164 50.8918 650.712 56.8361C654.261 62.6761 656.035 69.2982 656.035 76.7025C656.035 84.1068 654.261 90.8333 650.712 96.8818C647.164 102.826 642.31 107.571 636.152 111.117C630.099 114.558 623.263 116.279 615.644 116.279ZM615.487 97.1947C619.349 97.1947 622.741 96.3604 625.663 94.6918C628.69 92.919 630.986 90.5204 632.552 87.4961C634.222 84.3675 635.057 80.8218 635.057 76.859C635.057 72.8961 634.222 69.4025 632.552 66.3783C630.882 63.354 628.586 61.0075 625.663 59.339C622.741 57.5661 619.349 56.6797 615.487 56.6797C611.73 56.6797 608.39 57.5661 605.467 59.339C602.545 61.0075 600.249 63.354 598.579 66.3783C596.909 69.4025 596.074 72.8961 596.074 76.859C596.074 80.8218 596.909 84.3675 598.579 87.4961C600.249 90.5204 602.545 92.919 605.467 94.6918C608.39 96.3604 611.73 97.1947 615.487 97.1947Z" fill="white" style="fill:white;fill-opacity:1;"/>
<path d="M526.511 116.279C518.891 116.279 512.003 114.558 505.845 111.117C499.792 107.571 494.938 102.826 491.285 96.8818C487.737 90.8333 485.962 84.1068 485.962 76.7025C485.962 69.2982 487.737 62.6761 491.285 56.8361C494.834 50.8918 499.687 46.199 505.845 42.7575C512.003 39.2118 518.839 37.439 526.354 37.439C534.077 37.439 540.966 39.2118 547.019 42.7575C553.177 46.199 558.03 50.8918 561.579 56.8361C565.128 62.6761 566.902 69.2982 566.902 76.7025C566.902 84.1068 565.128 90.8333 561.579 96.8818C558.03 102.826 553.177 107.571 547.019 111.117C540.966 114.558 534.13 116.279 526.511 116.279ZM526.354 97.1947C530.216 97.1947 533.608 96.3604 536.53 94.6918C539.557 92.919 541.853 90.5204 543.419 87.4961C545.089 84.3675 545.923 80.8218 545.923 76.859C545.923 72.8961 545.089 69.4025 543.419 66.3783C541.749 63.354 539.452 61.0075 536.53 59.339C533.608 57.5661 530.216 56.6797 526.354 56.6797C522.597 56.6797 519.257 57.5661 516.334 59.339C513.412 61.0075 511.116 63.354 509.446 66.3783C507.776 69.4025 506.941 72.8961 506.941 76.859C506.941 80.8218 507.776 84.3675 509.446 87.4961C511.116 90.5204 513.412 92.919 516.334 94.6918C519.257 96.3604 522.597 97.1947 526.354 97.1947Z" fill="white" style="fill:white;fill-opacity:1;"/>
<path d="M408.159 114.714V4.74512H429.45V114.714H408.159ZM423.814 114.714V95.7865H479.862V114.714H423.814Z" fill="white" style="fill:white;fill-opacity:1;"/>
<path d="M373.885 116.278C370.128 116.278 367.049 115.027 364.648 112.524C362.248 110.021 361.048 106.945 361.048 103.295C361.048 99.6446 362.248 96.5682 364.648 94.0653C367.049 91.5625 370.128 90.311 373.885 90.311C377.538 90.311 380.565 91.5625 382.966 94.0653C385.366 96.5682 386.566 99.6446 386.566 103.295C386.566 106.945 385.366 110.021 382.966 112.524C380.565 115.027 377.538 116.278 373.885 116.278Z" fill="#B5A896" style="fill:#B5A896;fill:color(display-p3 0.7098 0.6588 0.5882);fill-opacity:1;"/>
<path d="M311.26 116.279C303.328 116.279 296.283 114.61 290.125 111.273C283.967 107.832 279.062 103.139 275.409 97.1947C271.86 91.2504 270.086 84.4718 270.086 76.859C270.086 69.3504 271.808 62.6761 275.252 56.8361C278.801 50.8918 283.602 46.199 289.655 42.7575C295.709 39.2118 302.441 37.439 309.851 37.439C317.157 37.439 323.576 39.1075 329.108 42.4447C334.744 45.6775 339.127 50.1618 342.258 55.8975C345.494 61.529 347.112 67.9425 347.112 75.1383C347.112 76.494 347.007 77.9018 346.799 79.3618C346.694 80.7175 346.433 82.2818 346.016 84.0547L282.454 84.2111V68.8811L336.466 68.7247L328.168 75.1383C327.96 70.654 327.125 66.8997 325.663 63.8754C324.307 60.8511 322.271 58.5568 319.558 56.9925C316.948 55.324 313.713 54.4897 309.851 54.4897C305.781 54.4897 302.232 55.4283 299.205 57.3054C296.179 59.0783 293.83 61.6332 292.16 64.9704C290.595 68.2032 289.812 72.0618 289.812 76.5461C289.812 81.1347 290.647 85.1497 292.317 88.5911C294.091 91.9282 296.596 94.5354 299.832 96.4125C303.067 98.1854 306.824 99.0718 311.104 99.0718C314.965 99.0718 318.462 98.4461 321.593 97.1947C324.724 95.839 327.438 93.8575 329.734 91.2504L341.789 103.295C338.136 107.571 333.648 110.804 328.325 112.994C323.106 115.184 317.418 116.279 311.26 116.279Z" fill="white" style="fill:white;fill-opacity:1;"/>
<path d="M236.415 114.715V1.6167H256.924V114.715H236.415Z" fill="white" style="fill:white;fill-opacity:1;"/>
<path d="M179.64 115.34L148.016 39.1592H170.247L191.226 97.3506H183.711L205.472 39.1592H227.86L194.2 115.183L179.64 115.34ZM158.662 146.313L181.676 97.6635L194.2 115.183L180.423 146.313H158.662Z" fill="white" style="fill:white;fill-opacity:1;"/>
<path d="M106.11 114.714V7.7168H126.619V114.714H106.11ZM88.4196 57.1482V39.1589H144.31V57.1482H88.4196Z" fill="white" style="fill:white;fill-opacity:1;"/>
<path d="M39.9911 116.278C31.1195 116.278 23.5005 114.766 17.1339 111.742C10.8716 108.718 5.18339 104.181 0.0692139 98.1325L14.1593 84.0539C17.3948 88.3296 21.1521 91.6668 25.4313 94.0654C29.7105 96.3597 34.9291 97.5068 41.087 97.5068C46.6186 97.5068 51.0022 96.4118 54.2377 94.2218C57.5776 92.0318 59.2475 89.0075 59.2475 85.1489C59.2475 81.8118 58.3082 79.1004 56.4295 77.0146C54.5508 74.9289 52.0459 73.1561 48.9148 71.6961C45.888 70.2361 42.496 68.9325 38.7386 67.7854C35.0856 66.5339 31.3805 65.1261 27.6231 63.5618C23.9701 61.9975 20.5781 60.0682 17.447 57.7739C14.4202 55.3754 11.9675 52.3511 10.0888 48.7011C8.21014 44.9468 7.2708 40.2539 7.2708 34.6225C7.2708 27.9482 8.88855 22.2646 12.124 17.5718C15.3595 12.8789 19.7953 9.28107 25.4313 6.77821C31.0674 4.27535 37.434 3.02393 44.5312 3.02393C52.0459 3.02393 58.83 4.43178 64.8835 7.2475C70.937 10.0632 75.8946 13.7132 79.7564 18.1975L65.6663 32.2761C62.4308 28.7304 59.0909 26.1232 55.6467 24.4546C52.3068 22.7861 48.4973 21.9518 44.2181 21.9518C39.3127 21.9518 35.4509 22.8904 32.6329 24.7675C29.8149 26.6446 28.4059 29.3561 28.4059 32.9018C28.4059 35.9261 29.3452 38.3768 31.2239 40.2539C33.1026 42.1311 35.5553 43.7475 38.5821 45.1032C41.7132 46.4589 45.1052 47.7625 48.7582 49.0139C52.5156 50.2654 56.2207 51.6732 59.8737 53.2375C63.6311 54.8018 67.0231 56.8354 70.0499 59.3382C73.181 61.8411 75.6859 65.0739 77.5646 69.0368C79.4433 72.8954 80.3826 77.6925 80.3826 83.4282C80.3826 93.6482 76.7818 101.678 69.5802 107.518C62.3786 113.358 52.5156 116.278 39.9911 116.278Z" fill="white" style="fill:white;fill-opacity:1;"/>
</svg>
