<svg width="163" height="135" viewBox="0 0 163 135" fill="none" xmlns="http://www.w3.org/2000/svg">
<path d="M75.535 46.8003C75.6964 46.9303 76.0896 47.2424 76.3876 47.4542C77.2269 48.0505 78.6189 48.9284 80.6089 49.8347C84.5675 51.6377 91.0037 53.6046 100.333 53.6046C109.663 53.6046 116.099 51.6377 120.058 49.8347C122.048 48.9284 123.44 48.0505 124.279 47.4542C124.699 47.1557 124.982 46.9272 125.132 46.8003C125.196 46.7462 125.236 46.7105 125.252 46.6958L125.258 46.6901C127.761 44.2918 131.667 44.4132 134.026 46.9797C136.407 49.5697 136.31 53.6689 133.811 56.1355L133.8 56.146L133.788 56.1574L133.762 56.1824L133.701 56.2418L133.535 56.3958C133.407 56.5136 133.241 56.6611 133.037 56.8337C132.628 57.179 132.068 57.625 131.349 58.1361C129.909 59.1587 127.838 60.4395 125.088 61.6918C119.567 64.2062 111.42 66.5566 100.333 66.5566C89.2466 66.5566 81.0995 64.2062 75.5789 61.6918C72.8293 60.4395 70.7578 59.1587 69.3185 58.1361C68.5992 57.625 68.0385 57.179 67.6303 56.8337C67.4374 56.6705 67.0157 56.2867 66.9181 56.1953L66.9045 56.1824C64.405 53.7158 64.2604 49.5697 66.641 46.9797C69.0018 44.4112 73.0325 44.3961 75.535 46.8003ZM75.535 46.8003C75.4694 46.7474 75.5784 46.8369 75.535 46.8003ZM75.535 46.8003C75.4711 46.7462 75.5513 46.815 75.535 46.8003ZM175.333 34.1766V-11.4241C175.333 -30.3333 175.333 -39.7879 169.44 -44.9612C163.546 -50.1345 154.537 -48.5788 136.52 -45.4673L127.733 -43.9499C114.065 -41.5894 107.23 -40.4092 100.333 -40.4092C93.4366 -40.4092 86.6023 -41.5894 72.9337 -43.9499L64.1468 -45.4673C46.1296 -48.5788 37.121 -50.1345 31.2272 -44.9612C25.3335 -39.7879 25.3335 -30.3333 25.3335 -11.4241V34.1766C25.3335 81.5838 60.6582 104.59 82.8215 114.358C88.8336 117.008 91.8397 118.333 100.333 118.333C108.827 118.333 111.833 117.008 117.845 114.358C140.009 104.59 175.333 81.5838 175.333 34.1766ZM71.1668 6.11393C64.9734 6.11393 61.1199 9.0338 60.091 11.1674C58.5481 14.3667 54.7942 15.6643 51.7064 14.0656C48.6187 12.4669 47.3664 8.57722 48.9093 5.37783C52.7324 -2.54966 61.9711 -6.83808 71.1668 -6.83808C80.3626 -6.83808 89.6012 -2.54966 93.4243 5.37783C94.9673 8.57722 93.715 12.4669 90.6272 14.0656C87.5395 15.6643 83.7856 14.3667 82.2426 11.1674C81.2137 9.0338 77.3603 6.11393 71.1668 6.11393ZM118.424 11.1674C119.453 9.0338 123.307 6.11393 129.5 6.11393C135.694 6.11393 139.547 9.0338 140.576 11.1674C142.119 14.3667 145.873 15.6643 148.961 14.0656C152.048 12.4669 153.301 8.57722 151.758 5.37783C147.935 -2.54966 138.696 -6.83808 129.5 -6.83808C120.304 -6.83808 111.066 -2.54966 107.243 5.37783C105.7 8.57722 106.952 12.4669 110.04 14.0656C113.127 15.6643 116.881 14.3667 118.424 11.1674Z" stroke="#262626" style="stroke:#262626;stroke:color(display-p3 0.1500 0.1500 0.1500);stroke-opacity:1;" stroke-width="1.5" stroke-dasharray="16 6"/>
</svg>
