<svg width="140" height="24" viewBox="0 0 140 24" fill="none" xmlns="http://www.w3.org/2000/svg">
<path d="M10.2747 2.9429C11.0473 1.62493 12.9527 1.62493 13.7253 2.9429L15.4512 5.88664C15.7332 6.36761 16.2031 6.70904 16.7477 6.8286L20.0807 7.5603C21.5729 7.8879 22.1617 9.69996 21.147 10.8421L18.8806 13.3931C18.5103 13.8099 18.3308 14.3624 18.3854 14.9173L18.7195 18.3132C18.869 19.8337 17.3276 20.9536 15.9278 20.3415L12.8013 18.9744C12.2904 18.751 11.7096 18.751 11.1987 18.9744L8.0722 20.3415C6.6724 20.9536 5.13097 19.8337 5.28054 18.3132L5.61459 14.9173C5.66917 14.3624 5.48967 13.8099 5.11938 13.3931L2.85302 10.8421C1.83834 9.69995 2.42711 7.8879 3.91935 7.5603L7.25233 6.8286C7.79689 6.70904 8.26683 6.36761 8.54881 5.88664L10.2747 2.9429Z" fill="#FFCE22" style="fill:#FFCE22;fill:color(display-p3 1.0000 0.8097 0.1350);fill-opacity:1;"/>
<path d="M39.2747 2.9429C40.0473 1.62493 41.9527 1.62493 42.7253 2.9429L44.4512 5.88664C44.7332 6.36761 45.2031 6.70904 45.7477 6.8286L49.0807 7.5603C50.5729 7.8879 51.1617 9.69996 50.147 10.8421L47.8806 13.3931C47.5103 13.8099 47.3308 14.3624 47.3854 14.9173L47.7195 18.3132C47.869 19.8337 46.3276 20.9536 44.9278 20.3415L41.8013 18.9744C41.2904 18.751 40.7096 18.751 40.1987 18.9744L37.0722 20.3415C35.6724 20.9536 34.131 19.8337 34.2805 18.3132L34.6146 14.9173C34.6692 14.3624 34.4897 13.8099 34.1194 13.3931L31.853 10.8421C30.8383 9.69995 31.4271 7.8879 32.9193 7.5603L36.2523 6.8286C36.7969 6.70904 37.2668 6.36761 37.5488 5.88664L39.2747 2.9429Z" fill="#FFCE22" style="fill:#FFCE22;fill:color(display-p3 1.0000 0.8097 0.1350);fill-opacity:1;"/>
<path d="M68.2747 2.9429C69.0473 1.62493 70.9527 1.62493 71.7253 2.9429L73.4512 5.88664C73.7332 6.36761 74.2031 6.70904 74.7477 6.8286L78.0807 7.5603C79.5729 7.8879 80.1617 9.69996 79.147 10.8421L76.8806 13.3931C76.5103 13.8099 76.3308 14.3624 76.3854 14.9173L76.7195 18.3132C76.869 19.8337 75.3276 20.9536 73.9278 20.3415L70.8013 18.9744C70.2904 18.751 69.7096 18.751 69.1987 18.9744L66.0722 20.3415C64.6724 20.9536 63.131 19.8337 63.2805 18.3132L63.6146 14.9173C63.6692 14.3624 63.4897 13.8099 63.1194 13.3931L60.853 10.8421C59.8383 9.69995 60.4271 7.8879 61.9193 7.5603L65.2523 6.8286C65.7969 6.70904 66.2668 6.36761 66.5488 5.88664L68.2747 2.9429Z" fill="#FFCE22" style="fill:#FFCE22;fill:color(display-p3 1.0000 0.8097 0.1350);fill-opacity:1;"/>
<path d="M97.2747 2.9429C98.0473 1.62493 99.9527 1.62493 100.725 2.9429L102.451 5.88664C102.733 6.36761 103.203 6.70904 103.748 6.8286L107.081 7.5603C108.573 7.8879 109.162 9.69996 108.147 10.8421L105.881 13.3931C105.51 13.8099 105.331 14.3624 105.385 14.9173L105.719 18.3132C105.869 19.8337 104.328 20.9536 102.928 20.3415L99.8013 18.9744C99.2904 18.751 98.7096 18.751 98.1987 18.9744L95.0722 20.3415C93.6724 20.9536 92.131 19.8337 92.2805 18.3132L92.6146 14.9173C92.6692 14.3624 92.4897 13.8099 92.1194 13.3931L89.853 10.8421C88.8383 9.69995 89.4271 7.8879 90.9193 7.5603L94.2523 6.8286C94.7969 6.70904 95.2668 6.36761 95.5488 5.88664L97.2747 2.9429Z" fill="#FFCE22" style="fill:#FFCE22;fill:color(display-p3 1.0000 0.8097 0.1350);fill-opacity:1;"/>
<path d="M126.275 2.9429C127.047 1.62493 128.953 1.62493 129.725 2.9429L131.451 5.88664C131.733 6.36761 132.203 6.70904 132.748 6.8286L136.081 7.5603C137.573 7.8879 138.162 9.69996 137.147 10.8421L134.881 13.3931C134.51 13.8099 134.331 14.3624 134.385 14.9173L134.719 18.3132C134.869 19.8337 133.328 20.9536 131.928 20.3415L128.801 18.9744C128.29 18.751 127.71 18.751 127.199 18.9744L124.072 20.3415C122.672 20.9536 121.131 19.8337 121.281 18.3132L121.615 14.9173C121.669 14.3624 121.49 13.8099 121.119 13.3931L118.853 10.8421C117.838 9.69995 118.427 7.8879 119.919 7.5603L123.252 6.8286C123.797 6.70904 124.267 6.36761 124.549 5.88664L126.275 2.9429Z" fill="#FFCE22" style="fill:#FFCE22;fill:color(display-p3 1.0000 0.8097 0.1350);fill-opacity:1;"/>
</svg>
