<svg width="184" height="145" viewBox="0 0 184 145" fill="none" xmlns="http://www.w3.org/2000/svg">
<path d="M32.7047 -22.9623C23.3211 -13.5786 23.3211 1.63525 32.7047 11.0189L45.9359 24.25C46.0352 24.1352 46.1394 24.023 46.2485 23.9139L79.5819 -9.4194C79.6906 -9.52817 79.8024 -9.63209 79.9169 -9.73117L66.6859 -22.9623C57.3022 -32.3459 42.0883 -32.3459 32.7047 -22.9623Z" stroke="#262626" style="stroke:#262626;stroke:color(display-p3 0.1500 0.1500 0.1500);stroke-opacity:1;" stroke-width="1.5" stroke-dasharray="16 6"/>
<path d="M88.7325 -0.915644C88.6334 -0.801118 88.5295 -0.689335 88.4207 -0.580563L55.0874 32.7528C54.9783 32.8619 54.8661 32.9661 54.7513 33.0654L134.648 112.962C144.032 122.346 159.246 122.346 168.629 112.962C178.013 103.579 178.013 88.3648 168.629 78.9812L88.7325 -0.915644Z" stroke="#262626" style="stroke:#262626;stroke:color(display-p3 0.1500 0.1500 0.1500);stroke-opacity:1;" stroke-width="1.5" stroke-dasharray="16 6"/>
<path d="M134.834 -35.7734C136.175 -39.1866 140.988 -39.1866 142.329 -35.7734L145.916 -26.646C146.325 -25.604 147.147 -24.7791 148.185 -24.3681L157.279 -20.7683C160.68 -19.4222 160.68 -14.5916 157.279 -13.2455L148.185 -9.64567C147.147 -9.23468 146.325 -8.40981 145.916 -7.36773L142.329 1.75965C140.988 5.17286 136.175 5.17286 134.834 1.75965L131.247 -7.36773C130.838 -8.4098 130.016 -9.23468 128.978 -9.64567L119.884 -13.2455C116.484 -14.5916 116.483 -19.4222 119.884 -20.7683L128.978 -24.3681C130.016 -24.7791 130.838 -25.604 131.247 -26.646L134.834 -35.7734Z" stroke="#262626" style="stroke:#262626;stroke:color(display-p3 0.1500 0.1500 0.1500);stroke-opacity:1;" stroke-width="1.5" stroke-dasharray="16 6"/>
<path d="M167.06 21.0788C168.401 17.6656 173.214 17.6656 174.555 21.0788L175.863 24.4067C176.272 25.4488 177.094 26.2737 178.133 26.6846L181.448 27.9971C184.849 29.3433 184.849 34.1738 181.448 35.52L178.133 36.8325C177.094 37.2435 176.272 38.0683 175.863 39.1104L174.555 42.4383C173.214 45.8515 168.401 45.8515 167.06 42.4383L165.753 39.1104C165.343 38.0683 164.521 37.2435 163.483 36.8325L160.167 35.52C156.767 34.1738 156.767 29.3433 160.167 27.9971L163.483 26.6846C164.521 26.2737 165.343 25.4488 165.753 24.4067L167.06 21.0788Z" stroke="#262626" style="stroke:#262626;stroke:color(display-p3 0.1500 0.1500 0.1500);stroke-opacity:1;" stroke-width="1.5" stroke-dasharray="16 6"/>
<path d="M43.4436 72.5599C44.7848 69.1467 49.5976 69.1467 50.9388 72.5599L52.2464 75.8878C52.6559 76.9299 53.4777 77.7548 54.516 78.1658L57.8316 79.4783C61.2322 80.8244 61.2322 85.655 57.8316 87.0011L54.516 88.3136C53.4777 88.7246 52.6559 89.5495 52.2464 90.5915L50.9388 93.9194C49.5976 97.3326 44.7848 97.3326 43.4436 93.9194L42.136 90.5915C41.7265 89.5495 40.9047 88.7246 39.8664 88.3136L36.5508 87.0011C33.1502 85.655 33.1502 80.8244 36.5508 79.4783L39.8664 78.1658C40.9047 77.7548 41.7265 76.9299 42.136 75.8878L43.4436 72.5599Z" stroke="#262626" style="stroke:#262626;stroke:color(display-p3 0.1500 0.1500 0.1500);stroke-opacity:1;" stroke-width="1.5" stroke-dasharray="16 6"/>
</svg>
