<svg width="301" height="432" viewBox="0 0 301 432" fill="none" xmlns="http://www.w3.org/2000/svg">
<path d="M397.633 339.042L320.927 263.282C313.857 256.311 318.327 244.263 328.233 243.59L435.792 236.194C449.515 235.255 450.34 215.38 436.734 213.31L330.159 197.114C320.353 195.622 316.877 183.252 324.494 176.884L407.164 107.68C417.718 98.8311 406.694 82.2728 394.469 88.5962L298.729 138.133C289.916 142.688 279.844 134.734 282.253 125.102L308.45 20.5359C311.795 7.18148 293.145 0.26176 286.97 12.5665L238.625 108.915C234.168 117.788 221.345 117.247 217.637 108.047L177.358 8.04483C172.216 -4.72169 153.061 0.639457 155.288 14.2302L172.815 120.609C174.435 130.404 163.732 137.513 155.325 132.248L63.9772 75.0119C52.3141 67.7064 39.9598 83.3042 49.7657 92.973L126.472 168.734C133.542 175.705 129.072 187.754 119.166 188.426L11.6076 195.821C-2.12156 196.776 -2.94111 216.636 10.6646 218.706L117.239 234.902C127.045 236.394 130.521 248.764 122.905 255.132L40.2347 324.335C29.6876 333.168 40.711 349.726 52.9354 343.403L148.693 293.873C157.505 289.317 167.571 297.288 165.169 306.904L138.971 411.47C135.626 424.825 154.276 431.744 160.451 419.44L208.796 323.09C213.253 314.218 226.082 314.742 229.784 323.959L270.046 423.954C275.188 436.721 294.345 431.36 292.111 417.785L274.584 311.407C272.98 301.618 283.667 294.503 292.073 299.768L383.422 357.004C395.085 364.31 407.439 348.711 397.633 339.042Z" fill="#C0B5A5" style="fill:#C0B5A5;fill:color(display-p3 0.7529 0.7098 0.6471);fill-opacity:1;"/>
</svg>
