<svg width="173" height="155" viewBox="0 0 173 155" fill="none" xmlns="http://www.w3.org/2000/svg">
<path d="M94.0837 13.799H95.0837V12.6373L93.9349 12.8101L94.0837 13.799ZM106.584 13.799L106.732 12.8101L105.584 12.6373V13.799H106.584ZM56.1395 10.8058L55.4324 10.0987L56.1395 10.8058ZM56.1395 -0.979317L55.4324 -0.272211V-0.272209L56.1395 -0.979317ZM44.3544 10.8058L45.0615 10.0987H45.0615L44.3544 10.8058ZM156.313 99.195L155.606 99.9021L156.313 99.195ZM156.313 110.98L155.606 110.273L156.313 110.98ZM144.528 99.195L145.235 99.9021L144.528 99.195ZM144.528 110.98L145.235 110.273L144.528 110.98ZM144.528 10.8058L145.235 10.0987L144.528 10.8058ZM156.313 10.8058L155.606 10.0987L156.313 10.8058ZM144.528 -0.979317L145.235 -0.272209V-0.272211L144.528 -0.979317ZM156.313 -0.979317L155.606 -0.272211V-0.272209L156.313 -0.979317ZM56.1395 110.979L55.4324 110.272L56.1395 110.979ZM44.3544 110.979L45.0615 110.272H45.0615L44.3544 110.979ZM56.1395 99.1942L55.4324 99.9013L56.1395 99.1942ZM44.3544 99.1942L45.0615 99.9013H45.0615L44.3544 99.1942ZM109.667 -15.8334C109.667 -17.6911 109.123 -19.4249 108.186 -20.8806L106.504 -19.7978C107.24 -18.6552 107.667 -17.2957 107.667 -15.8334H109.667ZM105.381 -23.6854C103.925 -24.6229 102.191 -25.1667 100.334 -25.1667V-23.1667C101.796 -23.1667 103.156 -22.7397 104.298 -22.0039L105.381 -23.6854ZM100.334 -25.1667C98.4759 -25.1667 96.7421 -24.6229 95.2864 -23.6854L96.3692 -22.0039C97.5118 -22.7397 98.8713 -23.1667 100.334 -23.1667V-25.1667ZM92.4816 -20.8806C91.5441 -19.4249 91.0003 -17.6911 91.0003 -15.8334H93.0003C93.0003 -17.2957 93.4273 -18.6552 94.1631 -19.7978L92.4816 -20.8806ZM91.0003 -15.8334C91.0003 -13.9756 91.5441 -12.2418 92.4816 -10.7861L94.1631 -11.8689C93.4273 -13.0115 93.0003 -14.371 93.0003 -15.8334H91.0003ZM95.2864 -7.98127C96.7421 -7.04383 98.4759 -6.50002 100.334 -6.50002V-8.50002C98.8713 -8.50002 97.5118 -8.92701 96.3692 -9.66277L95.2864 -7.98127ZM100.334 -6.50002C102.191 -6.50002 103.925 -7.04383 105.381 -7.98127L104.298 -9.66277C103.156 -8.92701 101.796 -8.50002 100.334 -8.50002V-6.50002ZM108.186 -10.7861C109.123 -12.2418 109.667 -13.9756 109.667 -15.8334H107.667C107.667 -14.371 107.24 -13.0115 106.504 -11.8689L108.186 -10.7861ZM93.9349 12.8101C91.4819 13.1791 89.0971 13.7569 86.7993 14.525L87.4333 16.4218C89.6225 15.6901 91.8947 15.1395 94.2324 14.7878L93.9349 12.8101ZM81.7012 16.6062C77.2631 18.7639 73.2559 21.668 69.8424 25.1549L71.2716 26.554C74.5263 23.2293 78.3464 20.4611 82.5757 18.4049L81.7012 16.6062ZM66.2518 29.3276C63.329 33.2018 61.0511 37.5909 59.5783 42.3352L61.4884 42.9282C62.8915 38.4083 65.0621 34.2255 67.8484 30.5321L66.2518 29.3276ZM58.2911 47.6891C57.8807 50.0652 57.667 52.5081 57.667 55H59.667C59.667 52.6226 59.8709 50.2937 60.2619 48.0294L58.2911 47.6891ZM57.667 55C57.667 57.7607 57.9293 60.461 58.4307 63.0772L60.3949 62.7008C59.9172 60.208 59.667 57.6337 59.667 55H57.667ZM60.0033 68.9597C61.7988 74.1478 64.5666 78.8809 68.088 82.9413L69.5989 81.631C66.2415 77.7596 63.6039 73.2484 61.8933 68.3056L60.0033 68.9597ZM72.3924 87.2457C76.4528 90.7671 81.1859 93.5349 86.3739 95.3304L87.028 93.4404C82.0852 91.7298 77.5741 89.0922 73.7027 85.7348L72.3924 87.2457ZM92.2565 96.903C94.8727 97.4044 97.573 97.6667 100.334 97.6667V95.6667C97.7 95.6667 95.1256 95.4165 92.6329 94.9388L92.2565 96.903ZM100.334 97.6667C103.094 97.6667 105.795 97.4044 108.411 96.903L108.034 94.9388C105.542 95.4165 102.967 95.6667 100.334 95.6667V97.6667ZM114.293 95.3304C119.481 93.5349 124.215 90.7671 128.275 87.2457L126.965 85.7347C123.093 89.0922 118.582 91.7298 113.639 93.4404L114.293 95.3304ZM132.579 82.9413C136.101 78.8809 138.869 74.1478 140.664 68.9597L138.774 68.3056C137.063 73.2484 134.426 77.7596 131.068 81.631L132.579 82.9413ZM142.237 63.0772C142.738 60.461 143 57.7607 143 55H141C141 57.6337 140.75 60.208 140.272 62.7008L142.237 63.0772ZM143 55C143 52.5081 142.787 50.0652 142.376 47.6891L140.405 48.0294C140.796 50.2937 141 52.6226 141 55H143ZM141.089 42.3352C139.616 37.5909 137.338 33.2018 134.416 29.3276L132.819 30.5321C135.605 34.2255 137.776 38.4083 139.179 42.9282L141.089 42.3352ZM130.825 25.1549C127.411 21.668 123.404 18.7639 118.966 16.6062L118.092 18.4049C122.321 20.4611 126.141 23.2293 129.396 26.554L130.825 25.1549ZM113.868 14.525C111.57 13.7569 109.185 13.1791 106.732 12.8101L106.435 14.7878C108.773 15.1395 111.045 15.6901 113.234 16.4218L113.868 14.525ZM105.584 13.799V25.7509H107.584V13.799H105.584ZM105.584 34.7148V46.6667H107.584V34.7148H105.584ZM105.584 46.6667C105.584 47.714 105.278 48.6869 104.751 49.5046L106.433 50.5875C107.161 49.4566 107.584 48.1094 107.584 46.6667H105.584ZM103.172 51.0844C102.354 51.611 101.381 51.9167 100.334 51.9167V53.9167C101.776 53.9167 103.124 53.4942 104.254 52.7659L103.172 51.0844ZM100.334 51.9167C99.2863 51.9167 98.3135 51.611 97.4957 51.0844L96.4129 52.7659C97.5438 53.4942 98.8909 53.9167 100.334 53.9167V51.9167ZM95.9159 49.5046C95.3893 48.6869 95.0837 47.714 95.0837 46.6667H93.0837C93.0837 48.1094 93.5061 49.4566 94.2344 50.5875L95.9159 49.5046ZM95.0837 46.6667V34.7148H93.0837V46.6667H95.0837ZM95.0837 25.7509V13.799H93.0837V25.7509H95.0837ZM163.834 55C163.834 53.5376 164.261 52.1781 164.996 51.0356L163.315 49.9527C162.377 51.4084 161.834 53.1422 161.834 55H163.834ZM167.203 48.8294C168.345 48.0936 169.705 47.6666 171.167 47.6666V45.6666C169.309 45.6666 167.575 46.2104 166.12 47.1479L167.203 48.8294ZM171.167 47.6666C172.629 47.6666 173.989 48.0936 175.131 48.8294L176.214 47.1479C174.759 46.2104 173.025 45.6666 171.167 45.6666V47.6666ZM177.338 51.0356C178.073 52.1781 178.5 53.5376 178.5 55H180.5C180.5 53.1422 179.957 51.4084 179.019 49.9527L177.338 51.0356ZM178.5 55C178.5 56.4623 178.073 57.8219 177.338 58.9644L179.019 60.0472C179.957 58.5915 180.5 56.8577 180.5 55H178.5ZM175.131 61.1706C173.989 61.9063 172.629 62.3333 171.167 62.3333V64.3333C173.025 64.3333 174.759 63.7895 176.214 62.8521L175.131 61.1706ZM171.167 62.3333C169.705 62.3333 168.345 61.9063 167.203 61.1706L166.12 62.8521C167.575 63.7895 169.309 64.3333 171.167 64.3333V62.3333ZM164.996 58.9644C164.261 57.8219 163.834 56.4623 163.834 55H161.834C161.834 56.8577 162.377 58.5915 163.315 60.0472L164.996 58.9644ZM29.5003 62.3333C28.038 62.3333 26.6784 61.9063 25.5359 61.1706L24.4531 62.8521C25.9088 63.7895 27.6426 64.3333 29.5003 64.3333V62.3333ZM23.3297 58.9644C22.594 57.8219 22.167 56.4623 22.167 55H20.167C20.167 56.8577 20.7108 58.5915 21.6482 60.0472L23.3297 58.9644ZM22.167 55C22.167 53.5376 22.594 52.1781 23.3297 51.0356L21.6482 49.9527C20.7108 51.4084 20.167 53.1422 20.167 55H22.167ZM25.5359 48.8294C26.6784 48.0936 28.038 47.6666 29.5003 47.6666V45.6666C27.6426 45.6666 25.9088 46.2104 24.4531 47.1479L25.5359 48.8294ZM29.5003 47.6666C30.9627 47.6666 32.3222 48.0936 33.4647 48.8294L34.5476 47.1479C33.0919 46.2104 31.3581 45.6666 29.5003 45.6666V47.6666ZM35.6709 51.0356C36.4067 52.1781 36.8337 53.5376 36.8337 55H38.8337C38.8337 53.1422 38.2899 51.4084 37.3524 49.9527L35.6709 51.0356ZM36.8337 55C36.8337 56.4623 36.4067 57.8219 35.6709 58.9644L37.3524 60.0472C38.2899 58.5915 38.8337 56.8577 38.8337 55H36.8337ZM33.4647 61.1706C32.3222 61.9063 30.9627 62.3333 29.5003 62.3333V64.3333C31.3581 64.3333 33.0919 63.7895 34.5476 62.8521L33.4647 61.1706ZM55.4324 10.0987C54.3983 11.1327 53.1351 11.7921 51.8069 12.0798L52.2302 14.0345C53.9224 13.668 55.5329 12.8265 56.8466 11.5129L55.4324 10.0987ZM48.6869 12.0798C47.3588 11.7921 46.0955 11.1327 45.0615 10.0987L43.6473 11.5129C44.9609 12.8265 46.5714 13.668 48.2636 14.0345L48.6869 12.0798ZM45.0615 10.0987C44.0274 9.06466 43.368 7.80139 43.0804 6.47324L41.1257 6.89655C41.4922 8.58876 42.3336 10.1993 43.6473 11.5129L45.0615 10.0987ZM43.0804 3.35324C43.368 2.02509 44.0274 0.761814 45.0615 -0.272209L43.6473 -1.68642C42.3336 -0.372789 41.4922 1.23772 41.1257 2.92993L43.0804 3.35324ZM45.0615 -0.272209C46.0955 -1.30623 47.3588 -1.96566 48.6869 -2.25328L48.2636 -4.20797C46.5714 -3.84151 44.9609 -3.00006 43.6473 -1.68642L45.0615 -0.272209ZM51.8069 -2.25328C53.1351 -1.96566 54.3983 -1.30623 55.4324 -0.272211L56.8466 -1.68642C55.5329 -3.00006 53.9224 -3.84151 52.2302 -4.20797L51.8069 -2.25328ZM55.4324 -0.272209C56.4664 0.761814 57.1258 2.02509 57.4134 3.35324L59.3681 2.92993C59.0017 1.23772 58.1602 -0.372791 56.8466 -1.68642L55.4324 -0.272209ZM57.4134 6.47324C57.1258 7.80139 56.4664 9.06466 55.4324 10.0987L56.8466 11.5129C58.1602 10.1993 59.0017 8.58876 59.3681 6.89655L57.4134 6.47324ZM157.02 98.4879C155.706 97.1742 154.096 96.3328 152.404 95.9663L151.98 97.921C153.309 98.2086 154.572 98.868 155.606 99.9021L157.02 98.4879ZM148.437 95.9663C146.745 96.3328 145.134 97.1742 143.821 98.4879L145.235 99.9021C146.269 98.868 147.532 98.2086 148.86 97.921L148.437 95.9663ZM143.821 98.4879C142.507 99.8015 141.666 101.412 141.299 103.104L143.254 103.528C143.541 102.199 144.201 100.936 145.235 99.9021L143.821 98.4879ZM141.299 107.071C141.666 108.763 142.507 110.374 143.821 111.687L145.235 110.273C144.201 109.239 143.541 107.976 143.254 106.648L141.299 107.071ZM143.821 111.687C145.134 113.001 146.745 113.842 148.437 114.209L148.86 112.254C147.532 111.966 146.269 111.307 145.235 110.273L143.821 111.687ZM152.404 114.209C154.096 113.842 155.706 113.001 157.02 111.687L155.606 110.273C154.572 111.307 153.309 111.966 151.98 112.254L152.404 114.209ZM157.02 111.687C158.334 110.374 159.175 108.763 159.542 107.071L157.587 106.648C157.299 107.976 156.64 109.239 155.606 110.273L157.02 111.687ZM159.542 103.104C159.175 101.412 158.334 99.8015 157.02 98.4879L155.606 99.9021C156.64 100.936 157.299 102.199 157.587 103.528L159.542 103.104ZM145.235 10.0987C144.201 9.06466 143.541 7.80139 143.254 6.47324L141.299 6.89655C141.666 8.58876 142.507 10.1993 143.821 11.5129L145.235 10.0987ZM143.254 3.35324C143.541 2.02509 144.201 0.761814 145.235 -0.272209L143.821 -1.68642C142.507 -0.372791 141.666 1.23772 141.299 2.92993L143.254 3.35324ZM145.235 -0.272211C146.269 -1.30623 147.532 -1.96566 148.86 -2.25328L148.437 -4.20797C146.745 -3.84151 145.134 -3.00006 143.821 -1.68642L145.235 -0.272211ZM151.98 -2.25328C153.309 -1.96566 154.572 -1.30623 155.606 -0.272211L157.02 -1.68642C155.706 -3.00006 154.096 -3.84151 152.404 -4.20797L151.98 -2.25328ZM155.606 -0.272209C156.64 0.761816 157.299 2.02509 157.587 3.35324L159.542 2.92993C159.175 1.23772 158.334 -0.372791 157.02 -1.68642L155.606 -0.272209ZM157.587 6.47324C157.299 7.80139 156.64 9.06466 155.606 10.0987L157.02 11.5129C158.334 10.1993 159.175 8.58876 159.542 6.89655L157.587 6.47324ZM155.606 10.0987C154.572 11.1327 153.309 11.7921 151.98 12.0798L152.404 14.0345C154.096 13.668 155.706 12.8265 157.02 11.5129L155.606 10.0987ZM148.86 12.0798C147.532 11.7921 146.269 11.1327 145.235 10.0987L143.821 11.5129C145.134 12.8265 146.745 13.668 148.437 14.0345L148.86 12.0798ZM55.4324 110.272C54.3983 111.306 53.1351 111.966 51.8069 112.253L52.2302 114.208C53.9224 113.841 55.5329 113 56.8466 111.686L55.4324 110.272ZM48.6869 112.253C47.3588 111.966 46.0955 111.306 45.0615 110.272L43.6473 111.686C44.9609 113 46.5714 113.841 48.2636 114.208L48.6869 112.253ZM45.0615 110.272C44.0274 109.238 43.368 107.975 43.0804 106.647L41.1257 107.07C41.4922 108.762 42.3336 110.373 43.6473 111.686L45.0615 110.272ZM43.0804 103.527C43.368 102.199 44.0274 100.935 45.0615 99.9013L43.6473 98.4871C42.3336 99.8007 41.4922 101.411 41.1257 103.103L43.0804 103.527ZM45.0615 99.9013C46.0955 98.8672 47.3588 98.2078 48.6869 97.9202L48.2636 95.9655C46.5714 96.332 44.9609 97.1734 43.6473 98.4871L45.0615 99.9013ZM51.8069 97.9202C53.1351 98.2078 54.3983 98.8672 55.4324 99.9013L56.8466 98.4871C55.5329 97.1734 53.9224 96.332 52.2302 95.9655L51.8069 97.9202ZM55.4324 99.9013C56.4664 100.935 57.1258 102.199 57.4134 103.527L59.3681 103.103C59.0017 101.411 58.1602 99.8007 56.8466 98.4871L55.4324 99.9013ZM57.4134 106.647C57.1258 107.975 56.4664 109.238 55.4324 110.272L56.8466 111.686C58.1602 110.373 59.0017 108.762 59.3681 107.07L57.4134 106.647Z" fill="#262626" style="fill:#262626;fill:color(display-p3 0.1500 0.1500 0.1500);fill-opacity:1;"/>
</svg>
