<svg width="66" height="66" viewBox="0 0 66 66" fill="none" xmlns="http://www.w3.org/2000/svg">
<rect width="66" height="66" rx="12" fill="#D5CDC3" style="fill:#D5CDC3;fill:color(display-p3 0.8353 0.8039 0.7647);fill-opacity:1;"/>
<path d="M48.3289 23.3132C47.3283 23.7439 46.2763 24.0437 45.199 24.2054C45.7026 24.1191 46.4438 23.2125 46.7388 22.8455C47.1869 22.292 47.5285 21.6601 47.7461 20.982C47.7461 20.9316 47.7965 20.8597 47.7461 20.8237C47.7207 20.8098 47.6923 20.8026 47.6633 20.8026C47.6344 20.8026 47.606 20.8098 47.5806 20.8237C46.4108 21.4572 45.1658 21.9407 43.8751 22.2627C43.8301 22.2765 43.7822 22.2777 43.7366 22.2663C43.6909 22.2549 43.6493 22.2313 43.616 22.198C43.5156 22.0783 43.4074 21.9654 43.2922 21.8598C42.7658 21.3881 42.1685 21.0021 41.5222 20.7157C40.6498 20.3578 39.7075 20.2028 38.7664 20.2624C37.8533 20.3201 36.9618 20.565 36.1474 20.982C35.3454 21.4215 34.6405 22.0187 34.0752 22.7376C33.4805 23.4775 33.0511 24.3362 32.816 25.2559C32.6221 26.1308 32.6001 27.035 32.7512 27.9182C32.7512 28.0693 32.7512 28.0909 32.6217 28.0693C27.4915 27.3138 23.2823 25.4934 19.843 21.5864C19.6919 21.4137 19.6127 21.4137 19.4904 21.5864C17.9938 23.8601 18.7205 27.4577 20.5913 29.2349C20.8431 29.4723 21.1021 29.7026 21.3756 29.9184C20.5178 29.8576 19.6811 29.6251 18.9148 29.2349C18.7709 29.1414 18.6917 29.1917 18.6846 29.3644C18.6642 29.6038 18.6642 29.8445 18.6846 30.0839C18.8347 31.2313 19.2868 32.3182 19.9948 33.2335C20.7028 34.1487 21.6411 34.8596 22.7139 35.2933C22.9754 35.4053 23.2479 35.4897 23.5269 35.5451C22.7329 35.7014 21.9185 35.7258 21.1165 35.6171C20.9439 35.5811 20.8791 35.6746 20.9439 35.8401C22.0016 38.7182 24.2968 39.596 25.9805 40.0853C26.2108 40.1213 26.441 40.1213 26.7 40.1789C26.7 40.1789 26.7 40.1788 26.6569 40.222C26.1604 41.1286 24.1529 41.7402 23.2319 42.0568C21.5509 42.6606 19.7586 42.8914 17.9794 42.7332C17.6988 42.69 17.634 42.6972 17.5621 42.7332C17.4901 42.7691 17.5621 42.8483 17.6412 42.9202C18.001 43.1577 18.3608 43.3663 18.7349 43.5678C19.8488 44.1753 21.0263 44.6579 22.2462 45.0069C28.5636 46.7481 35.6725 45.4673 40.4141 40.7545C44.1413 37.0561 45.4508 31.9547 45.4508 26.8461C45.4508 26.6518 45.6883 26.5367 45.825 26.436C46.7679 25.7012 47.5992 24.8336 48.2929 23.8601C48.4131 23.715 48.4747 23.5302 48.4656 23.342C48.4656 23.2341 48.4656 23.2557 48.3289 23.3132Z" fill="#0F0F0F" style="fill:#0F0F0F;fill:color(display-p3 0.0600 0.0600 0.0600);fill-opacity:1;"/>
</svg>
