<svg width="315" height="329" viewBox="0 0 315 329" fill="none" xmlns="http://www.w3.org/2000/svg">
<path d="M221.999 -58L227.942 108.447L268.363 -53.1269L239.571 110.918L312.702 -38.7206L250.432 115.754L353.076 -15.4108L260.05 122.741L387.719 15.7838L268.004 131.576L415.124 53.5L273.947 141.871L434.085 96.0892L277.622 153.177L443.777 141.69L278.864 165L443.777 188.31L277.622 176.823L434.085 233.911L273.947 188.13L415.124 276.5L268.004 198.425L387.719 314.216L260.05 207.258L353.076 345.411L250.432 214.247L312.702 368.722L239.571 219.082L268.363 383.127L227.942 221.553L221.999 388L216.055 221.553L175.635 383.127L204.427 219.082L131.297 368.722L193.567 214.247L90.923 345.411L183.949 207.258L56.2777 314.216L175.994 198.425L28.8755 276.5L170.05 188.13L9.91348 233.911L166.377 176.823L0.220703 188.31L165.134 165L0.220703 141.69L166.377 153.177L9.91348 96.0892L170.05 141.871L28.8755 53.5L175.994 131.576L56.2777 15.7838L183.949 122.741L90.923 -15.4108L193.567 115.754L131.297 -38.7206L204.427 110.918L175.635 -53.1269L216.055 108.447L221.999 -58Z" fill="#C5BAAC" style="fill:#C5BAAC;fill:color(display-p3 0.7725 0.7294 0.6745);fill-opacity:1;"/>
</svg>
