<svg width="164" height="135" viewBox="0 0 164 135" fill="none" xmlns="http://www.w3.org/2000/svg">
<path d="M42.6126 24.8622L43.5411 24.4909L43.1148 23.425L42.1174 23.9934L42.6126 24.8622ZM116.94 62.0272L117.932 61.9023L117.788 60.7634L116.68 61.0615L116.94 62.0272ZM128.888 57.4472L128.436 56.5552L127.775 56.8903L127.904 57.6202L128.888 57.4472ZM158.721 24.8623L159.216 23.9935L158.219 23.4251L157.793 24.491L158.721 24.8623ZM111.206 112.847L110.504 112.135L109.519 113.106L110.749 113.737L111.206 112.847ZM100.667 50.6667C98.2973 50.6667 95.9676 50.4985 93.6889 50.1737L93.4066 52.1537C95.7785 52.4918 98.2025 52.6667 100.667 52.6667V50.6667ZM88.5443 49.1558C83.9573 47.9885 79.6286 46.1739 75.6609 43.8148L74.6387 45.5338C78.7686 47.9894 83.2751 49.8786 88.0511 51.094L88.5443 49.1558ZM71.3017 40.8965C67.5638 38.0939 64.2395 34.7697 61.437 31.0318L59.8368 32.2316C62.7532 36.1212 66.2123 39.5803 70.1019 42.4967L71.3017 40.8965ZM58.5187 26.6726C56.1595 22.7049 54.345 18.3762 53.1777 13.7892L51.2394 14.2824C52.4548 19.0584 54.3441 23.5649 56.7996 27.6948L58.5187 26.6726ZM52.1598 8.64463C51.8349 6.36592 51.6668 4.03621 51.6668 1.66666H49.6668C49.6668 4.13094 49.8417 6.55496 50.1798 8.92688L52.1598 8.64463ZM51.6668 1.66666C51.6668 -0.7029 51.8349 -3.03261 52.1598 -5.31132L50.1798 -5.59356C49.8417 -3.22165 49.6668 -0.797626 49.6668 1.66666H51.6668ZM53.1777 -10.4559C54.345 -15.0428 56.1595 -19.3716 58.5187 -23.3393L56.7996 -24.3615C54.3441 -20.2316 52.4548 -15.725 51.2394 -10.9491L53.1777 -10.4559ZM61.437 -27.6985C64.2395 -31.4363 67.5638 -34.7606 71.3017 -37.5632L70.1019 -39.1633C66.2123 -36.247 62.7532 -32.7879 59.8368 -28.8983L61.437 -27.6985ZM75.6609 -40.4815C79.6286 -42.8406 83.9573 -44.6552 88.5443 -45.8225L88.0511 -47.7607C83.2751 -46.5453 78.7686 -44.6561 74.6387 -42.2005L75.6609 -40.4815ZM93.6889 -46.8404C95.9676 -47.1652 98.2973 -47.3333 100.667 -47.3333V-49.3333C98.2025 -49.3333 95.7785 -49.1585 93.4066 -48.8204L93.6889 -46.8404ZM100.667 -47.3333C103.036 -47.3333 105.366 -47.1652 107.645 -46.8404L107.927 -48.8204C105.555 -49.1585 103.131 -49.3333 100.667 -49.3333V-47.3333ZM112.789 -45.8225C117.376 -44.6552 121.705 -42.8406 125.673 -40.4815L126.695 -42.2005C122.565 -44.6561 118.059 -46.5453 113.283 -47.7607L112.789 -45.8225ZM130.032 -37.5632C133.77 -34.7606 137.094 -31.4364 139.897 -27.6985L141.497 -28.8983C138.58 -32.7879 135.121 -36.247 131.232 -39.1633L130.032 -37.5632ZM142.815 -23.3393C145.174 -19.3716 146.989 -15.0428 148.156 -10.4559L150.094 -10.9491C148.879 -15.7251 146.99 -20.2316 144.534 -24.3615L142.815 -23.3393ZM149.174 -5.31132C149.499 -3.03261 149.667 -0.7029 149.667 1.66666H151.667C151.667 -0.797626 151.492 -3.22165 151.154 -5.59356L149.174 -5.31132ZM149.667 1.66666C149.667 4.03621 149.499 6.36592 149.174 8.64463L151.154 8.92687C151.492 6.55496 151.667 4.13094 151.667 1.66666H149.667ZM148.156 13.7892C146.989 18.3762 145.174 22.7049 142.815 26.6726L144.534 27.6948C146.99 23.5649 148.879 19.0584 150.094 14.2824L148.156 13.7892ZM139.897 31.0318C137.094 34.7697 133.77 38.0939 130.032 40.8965L131.232 42.4966C135.121 39.5803 138.58 36.1212 141.497 32.2316L139.897 31.0318ZM125.673 43.8148C121.705 46.1739 117.376 47.9885 112.789 49.1558L113.283 51.094C118.059 49.8786 122.565 47.9894 126.695 45.5338L125.673 43.8148ZM107.645 50.1737C105.366 50.4985 103.036 50.6667 100.667 50.6667V52.6667C103.131 52.6667 105.555 52.4918 107.927 52.1537L107.645 50.1737ZM18.3335 68.3333C18.3335 65.1404 18.6388 62.0197 19.2214 58.9986L17.2576 58.6199C16.651 61.7652 16.3335 65.0126 16.3335 68.3333H18.3335ZM21.049 52.2065C23.1354 46.2178 26.3518 40.7575 30.4436 36.0812L28.9384 34.7642C24.6808 39.63 21.3326 45.3132 19.1603 51.5485L21.049 52.2065ZM35.4432 31.1299C37.8126 29.0969 40.3782 27.2865 43.1077 25.731L42.1174 23.9934C39.2764 25.6125 36.6064 27.4966 34.1408 29.612L35.4432 31.1299ZM41.6841 25.2335C42.825 28.0866 44.1669 30.8374 45.6922 33.4685L47.4225 32.4654C45.9453 29.9173 44.6459 27.2535 43.5411 24.4909L41.6841 25.2335ZM49.4545 39.2177C53.0769 44.1497 57.3945 48.5391 62.263 52.2416L63.4736 50.6497C58.7577 47.0632 54.5752 42.8112 51.0665 38.0338L49.4545 39.2177ZM67.9482 56.0995C73.1273 59.2192 78.7886 61.6209 84.7938 63.1664L85.2923 61.2295C79.4779 59.7331 73.996 57.4076 68.9801 54.3863L67.9482 56.0995ZM91.5316 64.5143C94.5152 64.9442 97.5653 65.1667 100.667 65.1667V63.1667C97.6611 63.1667 94.7063 62.9511 91.8169 62.5348L91.5316 64.5143ZM100.667 65.1667C102.714 65.1667 104.74 65.0697 106.738 64.8801L106.549 62.8891C104.613 63.0727 102.651 63.1667 100.667 63.1667V65.1667ZM111.259 64.287C113.273 63.9488 115.255 63.5159 117.199 62.9929L116.68 61.0615C114.797 61.5679 112.878 61.9872 110.928 62.3146L111.259 64.287ZM115.947 62.152C116.041 62.8941 116.118 63.6413 116.177 64.3934L118.171 64.2348C118.109 63.4522 118.029 62.6746 117.932 61.9023L115.947 62.152ZM116.283 66.0802C116.316 66.8269 116.333 67.5781 116.333 68.3333H118.333C118.333 67.5479 118.316 66.7666 118.281 65.9898L116.283 66.0802ZM116.333 68.3333C116.333 70.7029 116.165 73.0326 115.841 75.3113L117.821 75.5936C118.159 73.2216 118.333 70.7976 118.333 68.3333H116.333ZM114.823 80.4558C113.655 85.0428 111.841 89.3716 109.482 93.3393L111.201 94.3614C113.656 90.2316 115.545 85.725 116.761 80.9491L114.823 80.4558ZM106.563 97.6985C103.761 101.436 100.437 104.761 96.6986 107.563L97.8984 109.163C101.788 106.247 105.247 102.788 108.163 98.8982L106.563 97.6985ZM92.3395 110.481C88.3718 112.841 84.043 114.655 79.456 115.822L79.9493 117.761C84.7252 116.545 89.2318 114.656 93.3616 112.201L92.3395 110.481ZM74.3115 116.84C72.0328 117.165 69.7031 117.333 67.3335 117.333V119.333C69.7978 119.333 72.2218 119.158 74.5937 118.82L74.3115 116.84ZM67.3335 117.333C64.9639 117.333 62.6342 117.165 60.3555 116.84L60.0733 118.82C62.4452 119.158 64.8692 119.333 67.3335 119.333V117.333ZM55.211 115.822C50.624 114.655 46.2952 112.841 42.3275 110.481L41.3054 112.201C45.4352 114.656 49.9418 116.545 54.7177 117.761L55.211 115.822ZM37.9683 107.563C34.2305 104.761 30.9062 101.436 28.1037 97.6985L26.5035 98.8983C29.4198 102.788 32.8789 106.247 36.7686 109.163L37.9683 107.563ZM25.1854 93.3393C22.8262 89.3716 21.0116 85.0428 19.8443 80.4559L17.9061 80.9491C19.1215 85.7251 21.0107 90.2316 23.4663 94.3615L25.1854 93.3393ZM18.8264 75.3113C18.5016 73.0326 18.3335 70.7029 18.3335 68.3333H16.3335C16.3335 70.7976 16.5083 73.2216 16.8465 75.5936L18.8264 75.3113ZM127.904 57.6202C128.128 58.8985 128.313 60.1905 128.457 61.4949L130.445 61.275C130.296 59.9283 130.105 58.5943 129.873 57.2742L127.904 57.6202ZM128.711 64.42C128.792 65.7139 128.833 67.0187 128.833 68.3333H130.833C130.833 66.9769 130.791 65.6303 130.707 64.2947L128.711 64.42ZM128.833 68.3333C128.833 71.3345 128.618 74.2848 128.203 77.17L130.183 77.4548C130.612 74.4756 130.833 71.4301 130.833 68.3333H128.833ZM126.902 83.6853C125.41 89.4924 123.091 94.968 120.077 99.9793L121.791 101.01C124.903 95.8355 127.298 90.1807 128.839 84.1831L126.902 83.6853ZM116.351 105.481C114.562 107.838 112.607 110.061 110.504 112.135L111.908 113.559C114.079 111.419 116.097 109.123 117.944 106.69L116.351 105.481ZM110.749 113.737C113.335 115.063 116.049 116.176 118.867 117.05L119.46 115.14C116.753 114.3 114.146 113.232 111.662 111.957L110.749 113.737ZM125.265 118.588C128.104 119.078 131.022 119.333 134 119.333V117.333C131.137 117.333 128.332 117.088 125.605 116.617L125.265 118.588ZM134 119.333C136.464 119.333 138.888 119.158 141.26 118.82L140.978 116.84C138.699 117.165 136.369 117.333 134 117.333V119.333ZM146.616 117.761C151.392 116.545 155.898 114.656 160.028 112.201L159.006 110.481C155.038 112.841 150.709 114.655 146.122 115.822L146.616 117.761ZM164.565 109.163C168.454 106.247 171.914 102.788 174.83 98.8982L173.23 97.6985C170.427 101.436 167.103 104.761 163.365 107.563L164.565 109.163ZM177.867 94.3614C180.323 90.2316 182.212 85.725 183.427 80.9491L181.489 80.4558C180.322 85.0428 178.507 89.3716 176.148 93.3393L177.867 94.3614ZM184.487 75.5935C184.825 73.2216 185 70.7976 185 68.3333H183C183 70.7029 182.832 73.0326 182.507 75.3113L184.487 75.5935ZM185 68.3333C185 65.0126 184.682 61.7652 184.076 58.6199L182.112 58.9986C182.695 62.0197 183 65.1404 183 68.3333H185ZM182.173 51.5485C180.001 45.3133 176.653 39.6301 172.395 34.7643L170.89 36.0813C174.982 40.7576 178.198 46.2179 180.285 52.2065L182.173 51.5485ZM167.193 29.6121C164.727 27.4967 162.057 25.6126 159.216 23.9935L158.226 25.7311C160.955 27.2866 163.521 29.097 165.89 31.13L167.193 29.6121ZM157.793 24.491C156.788 27.0036 155.622 29.4345 154.308 31.771L156.051 32.7514C157.408 30.3388 158.612 27.8285 159.65 25.2336L157.793 24.491ZM151.083 36.8964C147.988 41.3174 144.326 45.3128 140.202 48.7769L141.489 50.3082C145.745 46.7322 149.526 42.6077 152.721 38.0434L151.083 36.8964ZM135.38 52.4403C133.165 53.9575 130.846 55.3334 128.436 56.5552L129.341 58.3391C131.829 57.0774 134.224 55.6567 136.51 54.0903L135.38 52.4403Z" fill="#262626" style="fill:#262626;fill:color(display-p3 0.1500 0.1500 0.1500);fill-opacity:1;"/>
</svg>
