<svg width="163" height="135" viewBox="0 0 163 135" fill="none" xmlns="http://www.w3.org/2000/svg">
<path d="M76.2765 -19.9302C86.8319 -38.8656 92.1096 -48.3333 100 -48.3333C107.891 -48.3333 113.168 -38.8656 123.724 -19.9302L126.455 -15.0314C129.454 -9.65055 130.954 -6.96012 133.292 -5.18495C135.631 -3.40978 138.543 -2.75083 144.368 -1.43294L149.671 -0.233103C170.168 4.40462 180.417 6.72348 182.855 14.5644C185.293 22.4054 178.306 30.5756 164.333 46.916L160.717 51.1435C156.747 55.787 154.761 58.1087 153.868 60.981C152.975 63.8533 153.275 66.9509 153.875 73.1463L154.422 78.7866C156.534 100.588 157.591 111.489 151.207 116.335C144.824 121.181 135.228 116.763 116.036 107.926L111.071 105.64C105.617 103.129 102.891 101.874 100 101.874C97.1096 101.874 94.3828 103.129 88.9291 105.64L83.964 107.926C64.7724 116.763 55.1765 121.181 48.793 116.335C42.4094 111.489 43.4657 100.588 45.5784 78.7867L46.125 73.1463C46.7253 66.9509 47.0255 63.8533 46.1323 60.981C45.2391 58.1087 43.2536 55.787 39.2827 51.1435L35.6676 46.916C21.6938 30.5756 14.707 22.4054 17.1453 14.5644C19.5836 6.72348 29.8322 4.40462 50.3296 -0.233099L55.6325 -1.43293C61.4572 -2.75083 64.3695 -3.40978 66.7079 -5.18495C69.0464 -6.96012 70.5461 -9.65055 73.5456 -15.0314L76.2765 -19.9302Z" stroke="#262626" style="stroke:#262626;stroke:color(display-p3 0.1500 0.1500 0.1500);stroke-opacity:1;" stroke-width="1.5" stroke-dasharray="16 6"/>
</svg>
